<?xml version="1.0" encoding="UTF-8" standalone="no"?>
<!-- Created with Inkscape (http://www.inkscape.org/) -->

<svg
   xmlns:dc="http://purl.org/dc/elements/1.1/"
   xmlns:cc="http://creativecommons.org/ns#"
   xmlns:rdf="http://www.w3.org/1999/02/22-rdf-syntax-ns#"
   xmlns:svg="http://www.w3.org/2000/svg"
   xmlns="http://www.w3.org/2000/svg"
   xmlns:sodipodi="http://sodipodi.sourceforge.net/DTD/sodipodi-0.dtd"
   xmlns:inkscape="http://www.inkscape.org/namespaces/inkscape"
   width="16"
   height="16"
   id="svg2"
   version="1.1"
   inkscape:version="0.48.4 r9939"
   sodipodi:docname="New document 1">
  <defs
     id="defs4" />
  <sodipodi:namedview
     id="base"
     pagecolor="#ffffff"
     bordercolor="#666666"
     borderopacity="1.0"
     inkscape:pageopacity="0.0"
     inkscape:pageshadow="2"
     inkscape:zoom="11.2"
     inkscape:cx="18.226434"
     inkscape:cy="6.6361607"
     inkscape:document-units="px"
     inkscape:current-layer="layer1"
     showgrid="false"
     inkscape:window-width="937"
     inkscape:window-height="466"
     inkscape:window-x="125"
     inkscape:window-y="125"
     inkscape:window-maximized="0" />
  <metadata
     id="metadata7">
    <rdf:RDF>
      <cc:Work
         rdf:about="">
        <dc:format>image/svg+xml</dc:format>
        <dc:type
           rdf:resource="http://purl.org/dc/dcmitype/StillImage" />
        <dc:title></dc:title>
      </cc:Work>
    </rdf:RDF>
  </metadata>
  <g
     inkscape:label="Layer 1"
     inkscape:groupmode="layer"
     id="layer1"
     transform="translate(0,-1036.3622)">
    <path
       style="fill:#000000;fill-opacity:1;stroke:none"
       d="m 16,1050.1985 c 0,-0.09 -0.651862,-1.3332 -1.448582,-2.7628 -1.313902,-2.3577 -1.510689,-2.5846 -2.116608,-2.4406 -0.367412,0.087 -0.973937,0.3994 -1.347832,0.6936 -1.024112,0.8055 -1.3983697,0.6614 -2.0152111,-0.7759 -0.4113374,-0.9585 -0.5163436,-1.6191 -0.3908357,-2.4588 0.1030922,-0.6898 0.056158,-1.2196 -0.1175427,-1.3269 -0.4922947,-0.3043 -0.3183508,-0.9739 0.2529754,-0.9739 1.1039884,0 1.3544921,-1.7302 0.2990091,-2.0652 -0.728247,-0.2312 -1.3777816,0.115 -1.5572002,0.8299 -0.1526816,0.6084 -0.1990711,0.6187 -1.0924383,0.2455 -1.9399901,-0.8106 -2.7971485,-0.3785 -3.5646873,1.7969 -0.5288867,1.4991 -0.526254,1.6762 0.024916,1.6762 0.3322302,0 0.3999021,0.1584 0.265181,0.6208 -0.099482,0.3414 -0.2579384,1.0462 -0.3521183,1.5663 -0.1163579,0.6425 -0.6285498,1.3941 -1.598092,2.3453 -1.41328276,1.3865 -1.42270623,1.407 -0.99103942,2.1554 0.42939191,0.7445 1.07369652,1.1825 1.34309702,0.9131 0.075782,-0.076 -0.00787,-0.3133 -0.185904,-0.5278 -0.2614092,-0.315 -0.00352,-0.7102 1.3402829,-2.054 0.9680362,-0.9681 1.6639733,-1.904 1.6639733,-2.2379 0,-0.3156 0.1011672,-0.5739 0.2248173,-0.5739 0.2711969,0 1.1547855,1.7913 1.1547855,2.3411 0,0.215 0.1344535,1.0179 0.2987833,1.7841 l 0.2987855,1.3932 1.1497964,-0.01 c 1.1356102,-0.01 1.1424474,-0.012 0.5540701,-0.4829 -0.498156,-0.3986 -0.6119446,-0.8255 -0.6947152,-2.6062 -0.097268,-2.0925 -0.089322,-2.1225 0.4577674,-1.7265 0.306217,0.2216 0.9602884,0.5838 1.453497,0.8048 1.043343,0.4675 1.012152,0.3623 0.4828599,1.6291 -0.227634,0.5448 -0.4138805,1.3049 -0.4138805,1.6891 l 0,0.6987 3.3110456,0 c 1.821075,0 3.311044,-0.074 3.311044,-0.1636 z m -9.4719816,-6.2968 c -0.086661,-0.2258 0.080408,-0.6959 0.3712649,-1.0449 l 0.5288259,-0.6343 0.00919,0.7686 c 0.00503,0.4226 0.2201838,1.0904 0.4780791,1.484 l 0.4688986,0.7157 -0.849344,-0.4392 c -0.4671374,-0.2416 -0.9202459,-0.624 -1.0069038,-0.8499 z m -3.110738,-1.9807 c 0.092762,-0.2418 0.2414141,-0.7294 0.3303411,-1.0837 0.1498387,-0.597 0.861812,-1.1299 1.1391228,-0.8525 0.1751469,0.1751 -1.1216076,2.3711 -1.4016614,2.3736 -0.1300518,0 -0.1605632,-0.1956 -0.067803,-0.4374 z"
       id="path2996"
       inkscape:connector-curvature="0"
       sodipodi:nodetypes="sssssssssssssssssccsssssccsssssscssscscsscsccssscs" />
  </g>
</svg>
