<?xml version="1.0" encoding="UTF-8" standalone="no"?>
<!-- Created with Inkscape (http://www.inkscape.org/) -->

<svg
   xmlns:dc="http://purl.org/dc/elements/1.1/"
   xmlns:cc="http://creativecommons.org/ns#"
   xmlns:rdf="http://www.w3.org/1999/02/22-rdf-syntax-ns#"
   xmlns:svg="http://www.w3.org/2000/svg"
   xmlns="http://www.w3.org/2000/svg"
   xmlns:sodipodi="http://sodipodi.sourceforge.net/DTD/sodipodi-0.dtd"
   xmlns:inkscape="http://www.inkscape.org/namespaces/inkscape"
   width="16"
   height="16"
   id="svg3766"
   version="1.1"
   inkscape:version="0.48.4 r9939"
   sodipodi:docname="New document 4">
  <defs
     id="defs3768" />
  <sodipodi:namedview
     id="base"
     pagecolor="#ffffff"
     bordercolor="#666666"
     borderopacity="1.0"
     inkscape:pageopacity="0.0"
     inkscape:pageshadow="2"
     inkscape:zoom="11.2"
     inkscape:cx="12.660714"
     inkscape:cy="10.071429"
     inkscape:document-units="px"
     inkscape:current-layer="layer1"
     showgrid="false"
     inkscape:window-width="910"
     inkscape:window-height="587"
     inkscape:window-x="200"
     inkscape:window-y="55"
     inkscape:window-maximized="0" />
  <metadata
     id="metadata3771">
    <rdf:RDF>
      <cc:Work
         rdf:about="">
        <dc:format>image/svg+xml</dc:format>
        <dc:type
           rdf:resource="http://purl.org/dc/dcmitype/StillImage" />
        <dc:title></dc:title>
      </cc:Work>
    </rdf:RDF>
  </metadata>
  <g
     inkscape:label="Layer 1"
     inkscape:groupmode="layer"
     id="layer1"
     transform="translate(0,-1036.3622)">
    <path
       style="fill:#000000"
       d="m 14.926053,1052.3251 c -0.165102,-0.062 -0.303295,-0.1986 -0.342397,-0.3394 -0.01953,-0.07 -0.0316,-0.9531 -0.03128,-2.2871 4.95e-4,-2.0394 0.0042,-2.1804 0.05965,-2.3013 0.03252,-0.071 0.09013,-0.1563 0.128038,-0.1901 0.06871,-0.061 0.06892,-0.066 0.06892,-1.6817 l 0,-1.6204 -0.260672,0 c -0.333032,0 -0.465417,-0.057 -0.513587,-0.2208 -0.02363,-0.08 -0.031,-0.9553 -0.02349,-2.7886 0.0108,-2.6373 0.01184,-2.6747 0.08169,-2.923 0.103054,-0.3664 0.248034,-0.6179 0.505869,-0.8779 0.162324,-0.1636 0.295348,-0.2621 0.470638,-0.3483 0.329384,-0.1622 0.471284,-0.1797 0.594717,-0.073 l 0.09433,0.081 0.0084,5.2078 c 0.0074,4.5823 0.01421,5.2112 0.05655,5.2348 0.02647,0.015 0.07699,0.083 0.112266,0.1527 0.06225,0.122 0.06415,0.1919 0.06415,2.3672 0,2.5089 0.01091,2.3883 -0.230675,2.5482 -0.10543,0.07 -0.168704,0.084 -0.421437,0.094 -0.206715,0.01 -0.335285,-0 -0.421708,-0.034 z m -13.8276244,-0.2833 c -0.06154,-0.042 -0.14481896,-0.1244 -0.18507096,-0.1841 l -0.07318,-0.1086 0,-2.211 c 0,-2.3982 0.0018,-2.4246 0.17546396,-2.6059 l 0.08258,-0.086 -0.0083,-1.7813 -0.0083,-1.7814 -0.19311696,-0.054 c -0.25474,-0.072 -0.454196,-0.176 -0.515046,-0.2688 -0.05134,-0.078 -0.137192,-0.6771 -0.224455,-1.5655 -0.192837,-1.9631 -0.199221,-3.6826 -0.01495,-4.0269 0.04948,-0.092 0.179358,-0.1654 0.252872,-0.1421 0.08146,0.026 0.08058,0.02 0.179546,1.1416 0.07708,0.8735 0.09458,0.9651 0.184629,0.967 0.01294,2e-4 0.0311,-0.032 0.04035,-0.072 0.01368,-0.059 0.177522,-1.8064 0.177522,-1.8933 0,-0.1016 0.21659996,-0.1662 0.28416096,-0.085 0.019,0.023 0.07309,0.4755 0.1202,1.0058 0.0471,0.5303 0.100279,0.9823 0.118165,1.0044 0.101628,0.1257 0.129596,-0.01 0.218562,-1.0541 0.03994,-0.4691 0.08471,-0.8855 0.09948,-0.9254 0.03217,-0.087 0.190302,-0.1006 0.25522,-0.022 0.02686,0.032 0.07321,0.3991 0.131202,1.0381 0.04932,0.5433 0.09034,0.9916 0.09116,0.996 8.15e-4,0 0.03045,0.01 0.06586,0.01 0.0354,0 0.06551,-0 0.0669,-0.01 0.0014,-0 0.04406,-0.4558 0.09483,-1.003 0.06823,-0.7354 0.104632,-1.0072 0.139584,-1.0422 0.06764,-0.068 0.203003,-0.024 0.257435,0.082 0.252062,0.4939 0.27669,2.3022 0.06629,4.8678 -0.02831,0.3452 -0.06827,0.6632 -0.08881,0.7068 -0.05907,0.1252 -0.304829,0.2556 -0.595112,0.3156 l -0.262979,0.054 8.95e-4,1.8032 8.95e-4,1.8031 0.09594,0.094 c 0.05277,0.052 0.110689,0.1489 0.128712,0.2159 0.02115,0.079 0.02961,0.9009 0.02386,2.3198 -0.0099,2.4413 0.0016,2.3151 -0.225679,2.4772 -0.09268,0.066 -0.148805,0.076 -0.475232,0.085 -0.344396,0.01 -0.377924,0.01 -0.482028,-0.065 z m 6.790522,-0.6877 c -0.863283,-0.097 -1.459059,-0.259 -2.060181,-0.5613 -1.675352,-0.8423 -2.787822,-2.365 -3.071547,-4.204 -0.06531,-0.4233 -0.06531,-1.2105 0,-1.6338 0.187216,-1.2135 0.720769,-2.2732 1.574342,-3.1268 1.68417,-1.6841 4.17516,-2.1264 6.3414924,-1.1258 1.350217,0.6236 2.443471,1.8474 2.92365,3.2728 0.689592,2.047 0.137394,4.3314 -1.404345,5.8097 -0.859483,0.8241 -1.91599,1.3467 -3.0751144,1.5212 -0.252655,0.038 -1.041937,0.069 -1.228297,0.048 z m 1.174796,-1.4114 c 1.0185614,-0.1561 1.8497224,-0.6068 2.5555214,-1.3857 0.497704,-0.5492 0.882011,-1.359 1.00741,-2.1228 0.04812,-0.2931 0.04812,-1.0315 0,-1.3246 -0.268911,-1.638 -1.46244,-2.9658 -3.0628914,-3.4075 -0.436856,-0.1206 -0.776825,-0.1572 -1.274707,-0.1373 -1.083911,0.043 -1.981267,0.4254 -2.752216,1.1718 -0.93069,0.901 -1.380912,2.0882 -1.280386,3.3762 0.118872,1.5231 1.069325,2.8756 2.457677,3.4973 0.740004,0.3314 1.581171,0.4505 2.349592,0.3326 z m -1.029958,-0.3116 c -1.718503,-0.1786 -3.12247,-1.5066 -3.414213,-3.2296 -0.07738,-0.4569 -0.05028,-1.1409 0.06233,-1.5731 0.26391,-1.0128 0.884517,-1.8459 1.790848,-2.4041 0.448464,-0.2762 1.021913,-0.46 1.620949,-0.5194 1.143338,-0.1134 2.2701634,0.2925 3.0952254,1.1151 0.744878,0.7425 1.141715,1.6932 1.141715,2.7351 0,0.8684 -0.249826,1.6379 -0.751233,2.3142 -0.666987,0.8996 -1.6356334,1.4497 -2.7524274,1.5633 -0.368079,0.037 -0.420222,0.037 -0.793198,-10e-4 z"
       id="path3785"
       inkscape:connector-curvature="0" />
  </g>
</svg>
