<?xml version="1.0" encoding="UTF-8" standalone="no"?>
<!-- Created with Inkscape (http://www.inkscape.org/) -->

<svg
   xmlns:dc="http://purl.org/dc/elements/1.1/"
   xmlns:cc="http://creativecommons.org/ns#"
   xmlns:rdf="http://www.w3.org/1999/02/22-rdf-syntax-ns#"
   xmlns:svg="http://www.w3.org/2000/svg"
   xmlns="http://www.w3.org/2000/svg"
   xmlns:sodipodi="http://sodipodi.sourceforge.net/DTD/sodipodi-0.dtd"
   xmlns:inkscape="http://www.inkscape.org/namespaces/inkscape"
   width="16"
   height="16"
   id="svg2"
   version="1.1"
   inkscape:version="0.48.2 r9819"
   sodipodi:docname="4.svg">
  <defs
     id="defs4" />
  <sodipodi:namedview
     id="base"
     pagecolor="#ffffff"
     bordercolor="#666666"
     borderopacity="1.0"
     inkscape:pageopacity="0.0"
     inkscape:pageshadow="2"
     inkscape:zoom="8"
     inkscape:cx="-25.267591"
     inkscape:cy="1.1451158"
     inkscape:document-units="px"
     inkscape:current-layer="layer2"
     showgrid="false"
     inkscape:window-width="1014"
     inkscape:window-height="668"
     inkscape:window-x="1448"
     inkscape:window-y="192"
     inkscape:window-maximized="0" />
  <metadata
     id="metadata7">
    <rdf:RDF>
      <cc:Work
         rdf:about="">
        <dc:format>image/svg+xml</dc:format>
        <dc:type
           rdf:resource="http://purl.org/dc/dcmitype/StillImage" />
        <dc:title />
      </cc:Work>
    </rdf:RDF>
  </metadata>
  <g
     inkscape:groupmode="layer"
     id="layer2"
     inkscape:label="RoadSurface"
     style="display:inline">
    <path
       inkscape:connector-curvature="0"
       style="fill:#000000;fill-opacity:1;stroke:none;display:inline"
       d="M 15,-12 C 8.7762915,-12 2,-1.785 2,-1.785 c 0,0 0,1.82900654 0,2.785 0,7.179702 5.820298,13 13,13 0.458316,0 1.357,0 1.357,0 C 16.357,14 28,7.7213861 28,1 28,-6.179702 22.179702,-12 15,-12 z m 0,11 c 1.10457,0 2,0.89543104 2,2 0,1.10457 -0.89543,2 -2,2 -1.10457,0 -2,-0.89543 -2,-2 0,-1.10456896 0.89543,-2 2,-2 z"
       id="path4376-9-3"
       sodipodi:nodetypes="scsscsssssss" />
    <path
       inkscape:connector-curvature="0"
       style="fill:#3f3f3f;fill-opacity:1;stroke:none"
       d="M 16,-13 C 8.8202981,-13 3,-7.179702 3,0 3,7.179702 8.8202981,13 16,13 23.179702,13 29,7.179702 29,0 29,-7.179702 23.179702,-13 16,-13 z m 0,11 c 1.10457,0 2,0.895431 2,2 0,1.10457 -0.89543,2 -2,2 -1.10457,0 -2,-0.89543 -2,-2 0,-1.104569 0.89543,-2 2,-2 z"
       id="path4376-9" />
  </g>
  <g
     inkscape:groupmode="layer"
     id="layer3"
     inkscape:label="LinePaint">
    <path
       style="fill:#ffffff;fill-opacity:1;stroke:none;display:inline"
       d="M 16 -8 C 13.238576 -8 10.812658 -6.5967638 9.375 -4.46875 L 12.96875 -6.34375 L 13 -6.3125 C 13.910163 -6.7455047 14.924997 -7 16 -7 C 19.865993 -7 23 -3.865993 23 0 C 23 1.1096646 22.740853 2.1615011 22.28125 3.09375 L 22.75 3.34375 L 21.46875 5.84375 C 23.027129 4.3840222 24 2.3037392 24 0 C 24 -4.418278 20.418278 -8 16 -8 z M 9.78125 3.21875 L 8.90625 3.65625 C 9.6739618 5.143748 10.889456 6.3611739 12.375 7.125 L 12.84375 6.21875 C 11.539856 5.5551119 10.454164 4.5180938 9.78125 3.21875 z "
       id="path4905-1" />
  </g>
  <g
     inkscape:groupmode="layer"
     id="layer11"
     inkscape:label="Guides"
     style="display:none">
    <path
       style="fill:#ff00f5;fill-opacity:0.37566139;stroke:none"
       d="M 16,-13 C 8.8202981,-13 3,-7.1797019 3,0 3,7.1797019 8.8202981,13 16,13 23.179702,13 29,7.1797019 29,0 29,-7.1797019 23.179702,-13 16,-13 z m 0,11 c 1.10457,0 2,0.8954305 2,2 0,1.1045695 -0.89543,2 -2,2 -1.10457,0 -2,-0.8954305 -2,-2 0,-1.1045695 0.89543,-2 2,-2 z"
       id="path4376"
       inkscape:connector-curvature="0" />
    <path
       style="fill:#00e0ff;fill-opacity:0.37566139;stroke:none"
       d="m 16,-8 c -4.418278,0 -8,3.5817221 -8,8 0,4.4182779 3.581722,8 8,8 4.418278,0 8,-3.5817221 8,-8 0,-4.4182779 -3.581722,-8 -8,-8 z m 0,1 c 3.865993,0 7,3.1340069 7,7 0,3.8659931 -3.134007,7 -7,7 -3.865993,0 -7,-3.1340069 -7,-7 0,-3.8659931 3.134007,-7 7,-7 z"
       id="path4905"
       inkscape:connector-curvature="0" />
  </g>
</svg>
