<?xml version="1.0" encoding="UTF-8" standalone="no"?>
<!-- Created with Inkscape (http://www.inkscape.org/) -->

<svg
   xmlns:dc="http://purl.org/dc/elements/1.1/"
   xmlns:cc="http://creativecommons.org/ns#"
   xmlns:rdf="http://www.w3.org/1999/02/22-rdf-syntax-ns#"
   xmlns:svg="http://www.w3.org/2000/svg"
   xmlns="http://www.w3.org/2000/svg"
   xmlns:sodipodi="http://sodipodi.sourceforge.net/DTD/sodipodi-0.dtd"
   xmlns:inkscape="http://www.inkscape.org/namespaces/inkscape"
   width="16"
   height="16"
   id="svg2"
   version="1.1"
   inkscape:version="0.48.2 r9819"
   sodipodi:docname="6.svg">
  <defs
     id="defs4" />
  <sodipodi:namedview
     id="base"
     pagecolor="#ffffff"
     bordercolor="#666666"
     borderopacity="1.0"
     inkscape:pageopacity="0.0"
     inkscape:pageshadow="2"
     inkscape:zoom="16"
     inkscape:cx="6.4635152"
     inkscape:cy="2.211422"
     inkscape:document-units="px"
     inkscape:current-layer="layer2"
     showgrid="false"
     inkscape:window-width="1014"
     inkscape:window-height="668"
     inkscape:window-x="1448"
     inkscape:window-y="192"
     inkscape:window-maximized="0" />
  <metadata
     id="metadata7">
    <rdf:RDF>
      <cc:Work
         rdf:about="">
        <dc:format>image/svg+xml</dc:format>
        <dc:type
           rdf:resource="http://purl.org/dc/dcmitype/StillImage" />
        <dc:title></dc:title>
      </cc:Work>
    </rdf:RDF>
  </metadata>
  <g
     inkscape:groupmode="layer"
     id="layer2"
     inkscape:label="RoadSurface"
     style="display:inline">
    <path
       inkscape:connector-curvature="0"
       style="fill:#000000;fill-opacity:1;stroke:none;display:inline"
       d="M 0,29 C 7.179702,29 13,23.179702 13,16 13,8.820298 7.179702,3 0,3 c -7.179702,0 -13,5.820298 -13,13 0,7.179702 5.820298,13 13,13 z M 0,18 c -1.10457,0 -2,-0.895431 -2,-2 0,-0.846377 1.26846746,-2 1.26846746,-2 0,0 0.47333942,0 0.73153254,0 1.10457,0 2,0.89543 2,2 0,0.372488 0,1.77 0,1.77 0,0 -1.26791858,0.23 -2,0.23 z"
       id="path4376-9-3"
       sodipodi:nodetypes="ssssssscsscs" />
    <path
       inkscape:connector-curvature="0"
       style="fill:#3f3f3f;fill-opacity:1;stroke:none"
       d="M 1.0625,28 C 6.9161407,28 14,19.186 14,19.186 c 0,0 0.0625,-2.859939 0.0625,-4.186 0,-7.179702 -5.820298,-13 -13,-13 -2.3923935,0 -9.1218199,0 -9.1218199,0 0,0 -3.8781801,8.212692 -3.8781801,13 0,7.179702 5.820298,13 13,13 z m 0,-11 c -1.10457,0 -2,-0.895431 -2,-2 0,-0.552285 -0.9142137,-2 -0.9142137,-2 0,0 2.3619287,0 2.9142137,0 1.10457,0 2,0.89543 2,2 C 3.0625,15.372488 3,16.707 3,16.707 3,16.707 1.7945814,17 1.0625,17 z"
       id="path4376-9"
       sodipodi:nodetypes="scsscsssscsscs" />
  </g>
  <g
     inkscape:groupmode="layer"
     id="layer3"
     inkscape:label="LinePaint">
    <path
       style="fill:#ffffff;fill-opacity:1;stroke:none;display:inline"
       d="m 1,23 c 2.761424,0 5.187342,-1.403236 6.625,-3.53125 L 4.03125,21.34375 4,21.3125 C 3.089837,21.745505 2.075003,22 1,22 c -3.865993,0 -7,-3.134007 -7,-7 0,-1.109665 0.259147,-2.161501 0.71875,-3.09375 l -0.46875,-0.25 1.28125,-2.5 C -6.027129,10.615978 -7,12.696261 -7,15 c 0,4.418278 3.581722,8 8,8 z m 6.21875,-11.21875 0.875,-0.4375 C 7.326038,9.856252 6.110544,8.6388261 4.625,7.875 L 4.15625,8.78125 c 1.303894,0.663638 2.389586,1.700656 3.0625,3 z"
       id="path4905-1"
       inkscape:connector-curvature="0" />
  </g>
</svg>
