<?xml version="1.0" encoding="UTF-8" standalone="no"?>
<!-- Created with Inkscape (http://www.inkscape.org/) -->

<svg
   xmlns:dc="http://purl.org/dc/elements/1.1/"
   xmlns:cc="http://creativecommons.org/ns#"
   xmlns:rdf="http://www.w3.org/1999/02/22-rdf-syntax-ns#"
   xmlns:svg="http://www.w3.org/2000/svg"
   xmlns="http://www.w3.org/2000/svg"
   xmlns:sodipodi="http://sodipodi.sourceforge.net/DTD/sodipodi-0.dtd"
   xmlns:inkscape="http://www.inkscape.org/namespaces/inkscape"
   width="16"
   height="16"
   id="svg2"
   version="1.1"
   inkscape:version="0.48.2 r9819"
   sodipodi:docname="7.svg">
  <defs
     id="defs4" />
  <sodipodi:namedview
     id="base"
     pagecolor="#ffffff"
     bordercolor="#666666"
     borderopacity="1.0"
     inkscape:pageopacity="0.0"
     inkscape:pageshadow="2"
     inkscape:zoom="16"
     inkscape:cx="6.4635152"
     inkscape:cy="12.211422"
     inkscape:document-units="px"
     inkscape:current-layer="layer2"
     showgrid="false"
     inkscape:window-width="1014"
     inkscape:window-height="668"
     inkscape:window-x="1448"
     inkscape:window-y="192"
     inkscape:window-maximized="0" />
  <metadata
     id="metadata7">
    <rdf:RDF>
      <cc:Work
         rdf:about="">
        <dc:format>image/svg+xml</dc:format>
        <dc:type
           rdf:resource="http://purl.org/dc/dcmitype/StillImage" />
        <dc:title></dc:title>
      </cc:Work>
    </rdf:RDF>
  </metadata>
  <g
     inkscape:groupmode="layer"
     id="layer2"
     inkscape:label="RoadSurface"
     style="display:inline">
    <path
       inkscape:connector-curvature="0"
       style="fill:#000000;fill-opacity:1;stroke:none;display:inline"
       d="m 0,-12 c 7.179702,0 13,5.820298 13,13 0,7.179702 -5.820298,13 -13,13 -0.66065793,0 -1.9439671,0 -1.9439671,0 C -1.9439671,14 -13,7.5190441 -13,1 c 0,-7.179702 5.820298,-13 13,-13 z m 0,11 c -1.10457,0 -2,0.895431 -2,2 0,1.10457 0.89543,2 2,2 C 1.10457,3 2,2.10457 2,1 2,0.4955932 2,-0.317 2,-0.317 2,-0.317 0.60016274,-1 0,-1 z"
       id="path4376-9-3"
       sodipodi:nodetypes="ssscsssssscs" />
    <path
       inkscape:connector-curvature="0"
       style="fill:#3f3f3f;fill-opacity:1;stroke:none"
       d="m 1,-13 c 7.179702,0 13,5.820298 13,13 0,7.179702 -5.820298,13 -13,13 -1.34051204,0 -3.8503347,0 -3.8503347,0 C -2.8503347,13 -12,5.83919 -12,0 c 0,-7.179702 5.820298,-13 13,-13 z m 0,11 c -1.10457,0 -2,0.895431 -2,2 0,1.10457 0.89543,2 2,2 C 2.10457,2 3,1.10457 3,0 3,-1.104569 2.10457,-2 1,-2 z"
       id="path4376-9"
       sodipodi:nodetypes="ssscsssssss" />
  </g>
  <g
     inkscape:groupmode="layer"
     id="layer3"
     inkscape:label="LinePaint">
    <path
       style="fill:#ffffff;fill-opacity:1;stroke:none;display:inline"
       d="m 1,-8 c 2.761424,0 5.187342,1.403236 6.625,3.53125 L 4.03125,-6.34375 4,-6.3125 C 3.089837,-6.745505 2.075003,-7 1,-7 c -3.865993,0 -7,3.134007 -7,7 0,1.109665 0.259147,2.161501 0.71875,3.09375 l -0.46875,0.25 1.28125,2.5 C -6.027129,4.384022 -7,2.303739 -7,0 c 0,-4.418278 3.581722,-8 8,-8 z m 6.21875,11.21875 0.875,0.4375 C 7.326038,5.143748 6.110544,6.361174 4.625,7.125 L 4.15625,6.21875 c 1.303894,-0.663638 2.389586,-1.700656 3.0625,-3 z"
       id="path4905-1"
       inkscape:connector-curvature="0" />
  </g>
</svg>
