<?xml version="1.0" encoding="UTF-8" standalone="no"?>
<!-- Created with Inkscape (http://www.inkscape.org/) -->

<svg
   xmlns:dc="http://purl.org/dc/elements/1.1/"
   xmlns:cc="http://creativecommons.org/ns#"
   xmlns:rdf="http://www.w3.org/1999/02/22-rdf-syntax-ns#"
   xmlns:svg="http://www.w3.org/2000/svg"
   xmlns="http://www.w3.org/2000/svg"
   xmlns:sodipodi="http://sodipodi.sourceforge.net/DTD/sodipodi-0.dtd"
   xmlns:inkscape="http://www.inkscape.org/namespaces/inkscape"
   width="16"
   height="16"
   id="svg2"
   version="1.1"
   inkscape:version="0.48.2 r9819"
   sodipodi:docname="9.svg">
  <defs
     id="defs4" />
  <sodipodi:namedview
     id="base"
     pagecolor="#ffffff"
     bordercolor="#666666"
     borderopacity="1.0"
     inkscape:pageopacity="0.0"
     inkscape:pageshadow="2"
     inkscape:zoom="22.627417"
     inkscape:cx="10.451761"
     inkscape:cy="7.3930834"
     inkscape:document-units="px"
     inkscape:current-layer="layer3"
     showgrid="false"
     inkscape:window-width="1014"
     inkscape:window-height="668"
     inkscape:window-x="1503"
     inkscape:window-y="320"
     inkscape:window-maximized="0" />
  <metadata
     id="metadata7">
    <rdf:RDF>
      <cc:Work
         rdf:about="">
        <dc:format>image/svg+xml</dc:format>
        <dc:type
           rdf:resource="http://purl.org/dc/dcmitype/StillImage" />
        <dc:title></dc:title>
      </cc:Work>
    </rdf:RDF>
  </metadata>
  <g
     inkscape:groupmode="layer"
     id="layer2"
     inkscape:label="RoadSurface"
     style="display:inline">
    <path
       transform="matrix(0,1,-1,0,0,0)"
       style="fill:#000000;fill-opacity:1;stroke:none"
       d="m 0,-13 3,0 0,-3 11,0 0,3 2,0 0,11 -16,0 z"
       id="rect2997-1"
       inkscape:connector-curvature="0"
       sodipodi:nodetypes="ccccccccc" />
    <path
       transform="matrix(0,1,-1,0,0,0)"
       style="fill:#3f3f3f;fill-opacity:1;stroke:none"
       d="m 0,-14 2,0 0,-2 11,0 0,2 3,0 0,11 -16,0 z"
       id="rect2997"
       inkscape:connector-curvature="0"
       sodipodi:nodetypes="ccccccccc" />
  </g>
  <g
     inkscape:groupmode="layer"
     id="layer3"
     inkscape:label="LinePaint">
    <rect
       style="fill:#ffffff;fill-opacity:1;stroke:none"
       id="rect3786"
       width="4"
       height="1"
       x="2"
       y="-9"
       transform="matrix(0,1,-1,0,0,0)" />
    <rect
       style="fill:#ffffff;fill-opacity:1;stroke:none"
       id="rect3786-7"
       width="4"
       height="1"
       x="10"
       y="-9"
       transform="matrix(0,1,-1,0,0,0)" />
    <rect
       style="fill:#ffffff;fill-opacity:1;stroke:none"
       id="rect3786-2"
       width="1"
       height="1"
       x="3"
       y="-15"
       transform="matrix(0,1,-1,0,0,0)" />
    <rect
       style="fill:#ffffff;fill-opacity:1;stroke:none"
       id="rect3786-2-8"
       width="1"
       height="1"
       x="5"
       y="-15"
       transform="matrix(0,1,-1,0,0,0)" />
    <rect
       style="fill:#ffffff;fill-opacity:1;stroke:none"
       id="rect3786-2-7"
       width="1"
       height="1"
       x="7"
       y="-15"
       transform="matrix(0,1,-1,0,0,0)" />
    <rect
       style="fill:#ffffff;fill-opacity:1;stroke:none"
       id="rect3786-2-4"
       width="1"
       height="1"
       x="9"
       y="-15"
       transform="matrix(0,1,-1,0,0,0)" />
    <rect
       style="fill:#ffffff;fill-opacity:1;stroke:none"
       id="rect3786-2-2"
       width="1"
       height="1"
       x="11"
       y="-15"
       transform="matrix(0,1,-1,0,0,0)" />
  </g>
</svg>
