<?xml version="1.0" encoding="UTF-8" standalone="no"?>
<!-- Created with Inkscape (http://www.inkscape.org/) -->

<svg
   xmlns:dc="http://purl.org/dc/elements/1.1/"
   xmlns:cc="http://creativecommons.org/ns#"
   xmlns:rdf="http://www.w3.org/1999/02/22-rdf-syntax-ns#"
   xmlns:svg="http://www.w3.org/2000/svg"
   xmlns="http://www.w3.org/2000/svg"
   xmlns:sodipodi="http://sodipodi.sourceforge.net/DTD/sodipodi-0.dtd"
   xmlns:inkscape="http://www.inkscape.org/namespaces/inkscape"
   width="64"
   height="64"
   id="svg3033"
   version="1.1"
   inkscape:version="0.48.4 r9939"
   sodipodi:docname="branch000.svg">
  <defs
     id="defs3035" />
  <sodipodi:namedview
     id="base"
     pagecolor="#ffffff"
     bordercolor="#666666"
     borderopacity="1.0"
     inkscape:pageopacity="0.0"
     inkscape:pageshadow="2"
     inkscape:zoom="11.313708"
     inkscape:cx="26.495859"
     inkscape:cy="28.788638"
     inkscape:current-layer="layer7"
     showgrid="true"
     inkscape:grid-bbox="true"
     inkscape:document-units="px"
     inkscape:window-width="1440"
     inkscape:window-height="838"
     inkscape:window-x="1432"
     inkscape:window-y="-8"
     inkscape:window-maximized="1"
     inkscape:snap-global="false">
    <inkscape:grid
       type="xygrid"
       id="grid3919"
       empspacing="16"
       visible="true"
       enabled="true"
       snapvisiblegridlinesonly="true" />
  </sodipodi:namedview>
  <metadata
     id="metadata3038">
    <rdf:RDF>
      <cc:Work
         rdf:about="">
        <dc:format>image/svg+xml</dc:format>
        <dc:type
           rdf:resource="http://purl.org/dc/dcmitype/StillImage" />
        <dc:title></dc:title>
      </cc:Work>
    </rdf:RDF>
  </metadata>
  <g
     inkscape:groupmode="layer"
     id="layer3"
     inkscape:label="Shadow"
     style="display:inline"
     transform="translate(0,48)">
    <path
       style="opacity:0.3495575;fill:#000000;fill-opacity:1;stroke:none;display:inline"
       d="M 53 0 C 53 10.167485 48.88825 19.448614 42.25 26.21875 L 43.34375 27.34375 C 48.487773 22.228728 52.289778 15.760536 54 8.5625 L 54 16 L 54 17.90625 C 51.936032 22.313031 49.155014 26.3226 45.78125 29.75 L 46.875 30.875 C 49.599806 28.19142 52.011051 25.148362 54 21.8125 L 54 32 L 55 32 L 55 20.0625 C 56.787152 16.721706 58.147711 13.111493 59 9.25 L 59 16 L 60 16 L 60 0 L 59 0 L 58 0 C 58 5.4960044 56.922018 10.758594 55 15.59375 L 55 0 L 54 0 L 53 0 z "
       transform="translate(0,-48)"
       id="path3992-2-5" />
    <path
       style="opacity:0.3495575;fill:#000000;fill-opacity:1;stroke:none;display:inline"
       d="M 26.3125,106.25 C 19.614024,113.04952 10.235387,117.34375 0,117.34375 L 0,118 l 0,1 16,0 0.25,0 C 11.253551,121.12482 5.7582186,122.3125 0,122.3125 L 0,123 l 0,1 16,0 16,0 0,-1 -16,0 -7.25,0 c 3.786653,-0.84171 7.464545,-2.18552 10.9375,-4 L 32,119 l 0,-1 -10.46875,0 c 3.395903,-1.974 6.549924,-4.37124 9.375,-7.15625 l -1.125,-1.0625 C 26.486041,113.12546 22.620004,115.90301 18.375,118 L 16,118 8.40625,118 c 7.191279,-1.71611 13.744871,-5.53259 18.9375,-10.6875 L 26.3125,106.25 z"
       transform="translate(0,-112)"
       id="path4043-7-4"
       inkscape:connector-curvature="0" />
    <path
       style="opacity:0.35;fill:#000000;fill-opacity:1;stroke:none;display:inline"
       d="M 30.909249,-1.15325 46.878,-17.122001 46.1905,-17.840751 30.081124,-1.82513 z"
       id="rect3813-7"
       inkscape:connector-curvature="0"
       sodipodi:nodetypes="ccccc" />
    <path
       style="opacity:0.35;fill:#000000;fill-opacity:1;stroke:none;display:inline"
       d="M 27.347532,-4.68375 43.35666,-20.674579 42.60205,-21.423189 26.674091,-5.38839 z"
       id="rect3813-1-4"
       inkscape:connector-curvature="0"
       sodipodi:nodetypes="ccccc" />
    <path
       style="opacity:0.35;fill:#000000;fill-opacity:1;stroke:none;display:inline"
       d="M 54 48 L 54 54 L 48 54 L 48 55 L 54 55 L 54 59 L 48 59 L 48 60 L 54 60 L 54 64 L 55 64 L 55 60 L 59 60 L 59 64 L 60 64 L 60 60 L 64 60 L 64 59 L 60 59 L 60 55 L 64 55 L 64 54 L 60 54 L 60 48 L 59 48 L 59 54 L 55 54 L 55 48 L 54 48 z M 55 55 L 59 55 L 59 59 L 55 59 L 55 55 z "
       transform="translate(0,-48)"
       id="rect3813-7-2-0" />
  </g>
  <g
     inkscape:groupmode="layer"
     id="layer2"
     inkscape:label="Horz"
     style="display:inline"
     transform="translate(0,-64)">
    <rect
       transform="translate(0,112)"
       style="opacity:0.35;fill:#000000;fill-opacity:1;stroke:none;display:inline"
       id="rect3813-7-2"
       width="16"
       height="1"
       x="32"
       y="11" />
    <rect
       transform="translate(0,112)"
       style="opacity:0.35;fill:#000000;fill-opacity:1;stroke:none;display:inline"
       id="rect3813-1-4-8"
       width="16"
       height="1"
       x="32"
       y="6" />
    <rect
       transform="translate(0,112)"
       style="fill:#000000;fill-opacity:1;stroke:none;display:inline"
       id="rect3811-4"
       width="2.5"
       height="10.5"
       x="40.5"
       y="3" />
    <rect
       transform="translate(0,112)"
       style="fill:#997f4c;fill-opacity:1;stroke:none;display:inline"
       id="rect3041-8-2"
       width="2"
       height="10"
       x="41"
       y="3" />
    <rect
       transform="translate(0,112)"
       style="fill:#000000;fill-opacity:1;stroke:none;display:inline"
       id="rect3811-8"
       width="2.5"
       height="10.5"
       x="44.5"
       y="3" />
    <rect
       transform="translate(0,112)"
       style="fill:#997f4c;fill-opacity:1;stroke:none;display:inline"
       id="rect3041-2-4"
       width="2"
       height="10"
       x="45"
       y="3" />
    <rect
       style="fill:#000000;fill-opacity:1;stroke:none;display:inline"
       id="rect3811-0-0"
       width="2.5"
       height="11.5"
       x="20.5"
       y="114" />
    <rect
       style="fill:#000000;fill-opacity:1;stroke:none;display:inline"
       id="rect3811-4-1"
       width="2.5"
       height="9.5"
       x="24.5"
       y="116" />
    <rect
       style="fill:#997f4c;fill-opacity:1;stroke:none;display:inline"
       id="rect3041-8-2-3"
       width="2"
       height="9"
       x="25"
       y="116" />
    <rect
       style="fill:#000000;fill-opacity:1;stroke:none;display:inline"
       id="rect3811-8-8"
       width="2.5"
       height="10.5"
       x="28.5"
       y="115" />
    <rect
       style="fill:#997f4c;fill-opacity:1;stroke:none;display:inline"
       id="rect3041-2-4-9"
       width="2"
       height="10"
       x="29"
       y="115" />
    <rect
       transform="translate(0,112)"
       style="fill:#000000;fill-opacity:1;stroke:none;display:inline"
       id="rect3811-0"
       width="2.5"
       height="10.5"
       x="36.5"
       y="3" />
    <rect
       transform="translate(0,112)"
       style="fill:#997f4c;fill-opacity:1;stroke:none;display:inline"
       id="rect3041-9-60"
       width="2"
       height="10"
       x="37"
       y="3" />
    <rect
       transform="translate(0,112)"
       style="fill:#000000;fill-opacity:1;stroke:none;display:inline"
       id="rect3811"
       width="2.5"
       height="10.5"
       x="32.5"
       y="3" />
    <rect
       transform="translate(0,112)"
       style="fill:#997f4c;fill-opacity:1;stroke:none;display:inline"
       id="rect3041-86"
       width="2"
       height="10"
       x="33"
       y="3" />
    <rect
       style="fill:#000000;fill-opacity:1;stroke:none;display:inline"
       id="rect3811-0-0-6"
       width="2.5"
       height="10.5"
       x="4.5"
       y="115" />
    <rect
       style="fill:#997f4c;fill-opacity:1;stroke:none;display:inline"
       id="rect3041-9-60-6-1"
       width="2"
       height="10"
       x="5"
       y="115" />
    <rect
       style="fill:#000000;fill-opacity:1;stroke:none;display:inline"
       id="rect3811-4-1-8"
       width="2.5"
       height="10.5"
       x="8.5"
       y="115" />
    <rect
       style="fill:#997f4c;fill-opacity:1;stroke:none;display:inline"
       id="rect3041-8-2-3-4"
       width="2"
       height="10"
       x="9"
       y="115" />
    <rect
       style="fill:#000000;fill-opacity:1;stroke:none;display:inline"
       id="rect3811-8-8-9"
       width="2.5"
       height="11.875"
       x="12.5"
       y="113.625" />
    <rect
       style="fill:#997f4c;fill-opacity:1;stroke:none;display:inline"
       id="rect3041-2-4-9-6"
       width="2"
       height="11.375"
       x="13"
       y="113.625" />
    <rect
       style="fill:#000000;fill-opacity:1;stroke:none;display:inline"
       id="rect3811-3-3"
       width="2.5"
       height="10.5"
       x="0.5"
       y="115" />
    <rect
       style="fill:#997f4c;fill-opacity:1;stroke:none;display:inline"
       id="rect3041-86-4-7"
       width="2"
       height="10"
       x="1"
       y="115" />
    <rect
       style="opacity:0.35;fill:#000000;fill-opacity:1;stroke:none;display:inline"
       id="rect3813-7-0"
       width="16"
       height="1"
       x="-96"
       y="58.999996"
       transform="matrix(0,-1,1,0,0,0)" />
    <rect
       style="fill:#000000;fill-opacity:1;stroke:none;display:inline"
       id="rect3811-0-7"
       width="2.5"
       height="9"
       x="-91.5"
       y="52"
       transform="matrix(0,-1,1,0,0,0)" />
    <rect
       style="fill:#997f4c;fill-opacity:1;stroke:none;display:inline"
       id="rect3041-9-37"
       width="2"
       height="8.5"
       x="-91"
       y="52.5"
       transform="matrix(0,-1,1,0,0,0)" />
    <rect
       style="fill:#000000;fill-opacity:1;stroke:none;display:inline"
       id="rect3811-4-2"
       width="2.5"
       height="11.90625"
       x="-87.5"
       y="49.09375"
       transform="matrix(0,-1,1,0,0,0)" />
    <rect
       style="fill:#997f4c;fill-opacity:1;stroke:none;display:inline"
       id="rect3041-8-6"
       width="2"
       height="11.34375"
       x="-87"
       y="49.65625"
       transform="matrix(0,-1,1,0,0,0)" />
    <rect
       style="fill:#000000;fill-opacity:1;stroke:none;display:inline"
       id="rect3811-5"
       width="2.5"
       height="10.5"
       x="-95.5"
       y="50.5"
       transform="matrix(0,-1,1,0,0,0)" />
    <rect
       style="fill:#997f4c;fill-opacity:1;stroke:none;display:inline"
       id="rect3041-7"
       width="2"
       height="10"
       x="-95"
       y="51"
       transform="matrix(0,-1,1,0,0,0)" />
    <rect
       style="opacity:0.35;fill:#000000;fill-opacity:1;stroke:none;display:inline"
       id="rect3813-7-20"
       width="16"
       height="1"
       x="-112"
       y="59"
       transform="matrix(0,-1,1,0,0,0)" />
    <rect
       style="opacity:0.35;fill:#000000;fill-opacity:1;stroke:none;display:inline"
       id="rect3813-1-4-0"
       width="16"
       height="1"
       x="-112"
       y="53.999996"
       transform="matrix(0,-1,1,0,0,0)" />
    <rect
       style="fill:#000000;fill-opacity:1;stroke:none;display:inline"
       id="rect3811-0-1"
       width="2.5"
       height="10.5"
       x="-107.5"
       y="50.5"
       transform="matrix(0,-1,1,0,0,0)" />
    <rect
       style="fill:#997f4c;fill-opacity:1;stroke:none;display:inline"
       id="rect3041-9-4"
       width="2"
       height="10"
       x="-107"
       y="51"
       transform="matrix(0,-1,1,0,0,0)" />
    <rect
       style="fill:#000000;fill-opacity:1;stroke:none;display:inline"
       id="rect3811-4-6"
       width="2.5"
       height="10.5"
       x="-103.5"
       y="50.5"
       transform="matrix(0,-1,1,0,0,0)" />
    <rect
       style="fill:#997f4c;fill-opacity:1;stroke:none;display:inline"
       id="rect3041-8-0"
       width="2"
       height="10"
       x="-103"
       y="51"
       transform="matrix(0,-1,1,0,0,0)" />
    <rect
       style="fill:#000000;fill-opacity:1;stroke:none;display:inline"
       id="rect3811-8-7"
       width="2.5"
       height="10.5"
       x="-99.5"
       y="50.5"
       transform="matrix(0,-1,1,0,0,0)" />
    <rect
       style="fill:#997f4c;fill-opacity:1;stroke:none;display:inline"
       id="rect3041-2-1"
       width="2"
       height="10"
       x="-99"
       y="51"
       transform="matrix(0,-1,1,0,0,0)" />
    <rect
       style="fill:#000000;fill-opacity:1;stroke:none;display:inline"
       id="rect3811-7"
       width="2.5"
       height="10.5"
       x="-111.5"
       y="50.5"
       transform="matrix(0,-1,1,0,0,0)" />
    <rect
       style="fill:#997f4c;fill-opacity:1;stroke:none;display:inline"
       id="rect3041-77"
       width="2"
       height="10"
       x="-111"
       y="51"
       transform="matrix(0,-1,1,0,0,0)" />
    <rect
       style="fill:#7f7f7f;fill-opacity:1;stroke:none;display:inline"
       id="rect3813-73"
       width="16"
       height="1"
       x="-112"
       y="58"
       transform="matrix(0,-1,1,0,0,0)" />
    <rect
       style="fill:#7f7f7f;fill-opacity:1;stroke:none;display:inline"
       id="rect3813-1-3"
       width="16"
       height="1"
       x="-112"
       y="53"
       transform="matrix(0,-1,1,0,0,0)" />
  </g>
  <g
     inkscape:groupmode="layer"
     id="layer7"
     inkscape:label="TieBlack"
     style="display:inline"
     transform="translate(0,16)">
    <rect
       style="fill:#000000;fill-opacity:1;stroke:none;display:inline"
       id="rect3041-8-1-33-1"
       width="2.0000029"
       height="6.0983081"
       x="-1.5438999"
       y="35.129581"
       transform="matrix(0.84100499,-0.54102737,0.54102887,0.84100402,0,0)" />
    <rect
       style="fill:#000000;fill-opacity:1;stroke:none;display:inline"
       id="rect3041-7-1-4"
       width="2.0000024"
       height="9.2696114"
       x="-1.8145163"
       y="35.06028"
       transform="matrix(0.77531761,-0.63157153,0.63157303,0.77531639,0,0)" />
    <rect
       style="fill:#000000;fill-opacity:1;stroke:none;display:inline"
       id="rect3041-8-1-1-7-9-1"
       width="2.0000007"
       height="4.8291359"
       x="-21.627985"
       y="41.864861"
       transform="matrix(-0.4501586,0.89294862,0.89294933,0.45015719,0,0)" />
    <rect
       style="fill:#000000;fill-opacity:1;stroke:none;display:inline"
       id="rect3041-8-1-1-7-4-2"
       width="2.0000012"
       height="5.6502943"
       x="-22.558584"
       y="39.516369"
       transform="matrix(-0.54662103,0.83738011,0.8373811,0.54661952,0,0)" />
    <rect
       style="fill:#000000;fill-opacity:1;stroke:none;display:inline"
       id="rect3041-8-1-3-3"
       width="2.0000014"
       height="10.000012"
       x="20.663864"
       y="37.327934"
       transform="matrix(0.62748076,-0.77863207,0.77863327,0.62747926,0,0)" />
    <rect
       style="fill:#000000;fill-opacity:1;stroke:none;display:inline"
       id="rect3811-0-5"
       width="2.5"
       height="10.5"
       x="-75.5"
       y="50.5"
       transform="matrix(0,-1,1,0,0,-80)" />
    <rect
       style="fill:#000000;fill-opacity:1;stroke:none;display:inline"
       id="rect3811-4-8"
       width="2.5"
       height="10.5"
       x="-71.5"
       y="50.5"
       transform="matrix(0,-1,1,0,0,-80)" />
    <rect
       style="fill:#000000;fill-opacity:1;stroke:none;display:inline"
       id="rect3811-8-0"
       width="2.5"
       height="10.5"
       x="-67.5"
       y="50.5"
       transform="matrix(0,-1,1,0,0,-80)" />
    <rect
       style="fill:#000000;fill-opacity:1;stroke:none;display:inline"
       id="rect3811-3"
       width="2.5"
       height="12"
       x="-79.5"
       y="49"
       transform="matrix(0,-1,1,0,0,-80)" />
    <rect
       style="fill:#000000;fill-opacity:1;stroke:none;display:inline"
       id="rect3811-8-01"
       width="2.5"
       height="10.5"
       x="-83.5"
       y="50.5"
       transform="matrix(0,-1,1,0,0,-80)" />
    <rect
       style="fill:#000000;fill-opacity:1;stroke:none;display:inline"
       id="rect3811-8-7-9"
       width="2.5"
       height="9.5"
       x="-35.5"
       y="51"
       transform="matrix(0,-1,1,0,0,0)" />
    <rect
       style="fill:#000000;fill-opacity:1;stroke:none;display:inline"
       id="rect3811-7-4"
       width="2.5"
       height="9.5"
       x="-47.5"
       y="51"
       transform="matrix(0,-1,1,0,0,0)" />
    <rect
       style="fill:#000000;fill-opacity:1;stroke:none;display:inline"
       id="rect3811-51"
       width="2.5"
       height="9.5"
       x="48.5"
       y="35.5" />
    <rect
       style="fill:#000000;fill-opacity:1;stroke:none;display:inline"
       id="rect3811-8-9"
       width="2.5"
       height="9.5"
       x="60.5"
       y="35.5" />
  </g>
  <g
     inkscape:groupmode="layer"
     id="layer5"
     inkscape:label="NewTies"
     style="display:inline"
     transform="translate(0,16)">
    <rect
       style="fill:#997f4c;fill-opacity:1;stroke:none;display:inline"
       id="rect3041-8-1-33"
       width="2"
       height="5.841012"
       x="-0.85276103"
       y="34.980125"
       transform="matrix(0.8410045,-0.54102812,0.54102812,0.8410045,0,0)" />
    <rect
       style="fill:#997f4c;fill-opacity:1;stroke:none;display:inline"
       id="rect3041-8-1-1-7-9"
       width="2"
       height="4.8286605"
       x="-22.29937"
       y="42.086761"
       transform="matrix(-0.45015789,0.89294897,0.89294897,0.45015789,0,0)" />
    <rect
       style="fill:#997f4c;fill-opacity:1;stroke:none;display:inline"
       id="rect3041-8-1-1-7-4"
       width="2"
       height="5.729876"
       x="-23.250475"
       y="39.662273"
       transform="matrix(-0.54662027,0.8373806,0.8373806,0.54662027,0,0)" />
    <rect
       style="fill:#997f4c;fill-opacity:1;stroke:none;display:inline"
       id="rect3041-8-1-3"
       width="2"
       height="10"
       x="21.366869"
       y="37.404049"
       transform="matrix(0.62748001,-0.77863267,0.77863267,0.62748001,0,0)" />
    <rect
       style="fill:#997f4c;fill-opacity:1;stroke:none;display:inline"
       id="rect3041-7-1"
       width="2"
       height="9.3073082"
       x="-1.111007"
       y="34.988941"
       transform="matrix(0.775317,-0.63157228,0.63157228,0.775317,0,0)" />
    <g
       style="display:inline"
       transform="translate(32.005998,-64.000001)"
       id="g5535">
      <rect
         transform="matrix(0.70710678,-0.70710678,0.70710678,0.70710678,0,0)"
         y="57.289745"
         x="-69.460464"
         height="10"
         width="2"
         id="rect3041-4"
         style="fill:#000000;fill-opacity:1;stroke:none;display:inline" />
      <rect
         transform="matrix(0.70710678,-0.70710678,0.70710678,0.70710678,0,0)"
         y="57.289112"
         x="-68.753387"
         height="10"
         width="2"
         id="rect3041"
         style="fill:#997f4c;fill-opacity:1;stroke:none;display:inline" />
    </g>
    <g
       style="display:inline"
       transform="translate(32.005998,-1e-6)"
       id="g5583">
      <rect
         transform="matrix(0.70710922,-0.70710434,0.70710922,0.70710434,0,0)"
         y="12.034914"
         x="-1.5782565"
         height="10.000034"
         width="2.0000069"
         id="rect3041-4-2"
         style="fill:#000000;fill-opacity:1;stroke:none;display:inline" />
      <rect
         transform="matrix(0.70710922,-0.70710434,0.70710922,0.70710434,0,0)"
         y="12.034281"
         x="-0.87117541"
         height="10.000034"
         width="2.0000069"
         id="rect3041-82"
         style="fill:#997f4c;fill-opacity:1;stroke:none;display:inline" />
    </g>
    <rect
       style="fill:#997f4c;fill-opacity:1;stroke:none;display:inline"
       id="rect3041-9-60-6"
       width="2"
       height="11.34375"
       x="21"
       y="33.65625"
       rx="0"
       ry="0" />
    <rect
       style="fill:#000000;fill-opacity:1;stroke:none;display:inline"
       id="rect3811-8-8-9-2"
       width="2.5"
       height="10.375"
       x="16.5"
       y="35.125" />
    <rect
       style="fill:#997f4c;fill-opacity:1;stroke:none;display:inline"
       id="rect3041-2-4-9-6-9"
       width="2"
       height="10"
       x="17"
       y="35" />
    <rect
       style="fill:#000000;fill-opacity:1;stroke:none;display:inline"
       id="rect3041-9-1-2-6"
       width="2.0000031"
       height="4.5080166"
       x="-1.3323643"
       y="35.233906"
       transform="matrix(0.89496161,-0.44614316,0.44614457,0.89496091,0,0)" />
    <rect
       style="fill:#997f4c;fill-opacity:1;stroke:none;display:inline"
       id="rect3041-9-1-2"
       width="2"
       height="4.871006"
       x="-0.66161978"
       y="35.010014"
       transform="matrix(0.89496126,-0.44614387,0.44614387,0.89496126,0,0)" />
    <rect
       style="fill:#997f4c;fill-opacity:1;stroke:none;display:inline"
       id="rect3041-9-9"
       width="2"
       height="10"
       x="-75"
       y="51"
       transform="matrix(0,-1,1,0,0,-80)" />
    <rect
       style="fill:#997f4c;fill-opacity:1;stroke:none;display:inline"
       id="rect3041-8-4"
       width="2"
       height="10"
       x="-71"
       y="51"
       transform="matrix(0,-1,1,0,0,-80)" />
    <rect
       style="fill:#997f4c;fill-opacity:1;stroke:none;display:inline"
       id="rect3041-2-76"
       width="2"
       height="10"
       x="-67"
       y="51"
       transform="matrix(0,-1,1,0,0,-80)" />
    <rect
       style="fill:#997f4c;fill-opacity:1;stroke:none;display:inline"
       id="rect3041-6"
       width="2"
       height="11.5"
       x="-79"
       y="49.5"
       transform="matrix(0,-1,1,0,0,-80)" />
    <rect
       style="fill:#997f4c;fill-opacity:1;stroke:none;display:inline"
       id="rect3041-2-6"
       width="2"
       height="10"
       x="-83"
       y="51"
       transform="matrix(0,-1,1,0,0,-80)" />
    <rect
       style="fill:#997f4c;fill-opacity:1;stroke:none;display:inline"
       id="rect3041-86-2"
       width="2"
       height="9"
       x="49"
       y="35.5" />
    <rect
       style="fill:#997f4c;fill-opacity:1;stroke:none;display:inline"
       id="rect3041-2-1-8"
       width="2"
       height="9"
       x="-35"
       y="51.5"
       transform="matrix(0,-1,1,0,0,0)" />
    <rect
       style="fill:#997f4c;fill-opacity:1;stroke:none;display:inline"
       id="rect3041-2-4-4"
       width="2"
       height="9"
       x="61"
       y="35.5" />
    <rect
       style="fill:#997f4c;fill-opacity:1;stroke:none;display:inline"
       id="rect3041-77-1"
       width="2"
       height="9"
       x="-47"
       y="51.5"
       transform="matrix(0,-1,1,0,0,0)" />
  </g>
  <g
     inkscape:groupmode="layer"
     id="layer4"
     inkscape:label="Rails"
     style="display:inline"
     transform="translate(0,16)">
    <path
       style="fill:#7f7f7f;fill-opacity:1;stroke:none"
       d="M 42.65366,10.611363 C 49.52112,3.7359535 54,-5.5145362 54,-16 l -1,0 C 53,-5.7827317 48.62661,3.2242006 41.93093,9.919884 z"
       id="path3992-2"
       inkscape:connector-curvature="0"
       sodipodi:nodetypes="ccccc" />
    <path
       style="fill:#7f7f7f;fill-opacity:1;stroke:none"
       d="M 46.18786,14.148237 C 53.97392,6.3661511 59,-4.1219048 59,-16 l -1,0 C 58,-4.4020205 53.08907,5.821766 45.48857,13.422271 z"
       id="path4043"
       inkscape:connector-curvature="0"
       sodipodi:nodetypes="ccccc" />
    <path
       style="fill:#7f7f7f;fill-opacity:1;stroke:none;display:inline"
       d="M 25.943296,25.907499 C 19.245772,32.616951 10.229183,37 0,37 l 0,1 c 10.509302,0 19.795688,-4.492683 26.674789,-11.3877 z"
       id="path3992-2-0"
       inkscape:connector-curvature="0"
       sodipodi:nodetypes="ccccc" />
    <path
       style="fill:#7f7f7f;fill-opacity:1;stroke:none;display:inline"
       d="M 29.494458,29.432897 C 21.890888,37.056372 11.61785,42 0,42 l 0,1 c 11.882067,0 22.400962,-5.045875 30.183661,-12.836524 z"
       id="path4043-9"
       inkscape:connector-curvature="0"
       sodipodi:nodetypes="ccccc" />
    <rect
       style="fill:#7f7f7f;fill-opacity:1;stroke:none;display:inline"
       id="rect3813-1-0-6"
       width="16"
       height="1"
       x="16"
       y="117"
       transform="translate(0,-80)" />
    <rect
       style="fill:#7f7f7f;fill-opacity:1;stroke:none;display:inline"
       id="rect3813-1-0-6-8"
       width="16"
       height="1"
       x="0"
       y="117"
       transform="translate(0,-80)" />
    <rect
       transform="translate(0,32)"
       style="fill:#7f7f7f;fill-opacity:1;stroke:none;display:inline"
       id="rect3813-5"
       width="16"
       height="1"
       x="32"
       y="10" />
    <rect
       style="fill:#7f7f7f;fill-opacity:1;stroke:none;display:inline"
       id="rect3813-5-4"
       width="16"
       height="1"
       x="16"
       y="122"
       transform="translate(0,-80)" />
    <rect
       style="fill:#7f7f7f;fill-opacity:1;stroke:none;display:inline"
       id="rect3813-5-4-8"
       width="16"
       height="1"
       x="0"
       y="122"
       transform="translate(0,-80)" />
    <rect
       transform="translate(0,32)"
       style="fill:#7f7f7f;fill-opacity:1;stroke:none;display:inline"
       id="rect3813-1-0"
       width="16"
       height="1"
       x="32"
       y="5" />
    <rect
       style="fill:#7f7f7f;fill-opacity:1;stroke:none;display:inline"
       id="rect3813-15"
       width="16"
       height="1"
       x="-80"
       y="58"
       transform="matrix(0,-1,1,0,0,-80)" />
    <rect
       style="fill:#7f7f7f;fill-opacity:1;stroke:none;display:inline"
       id="rect3813-1-42"
       width="16"
       height="1"
       x="-80"
       y="53"
       transform="matrix(0,-1,1,0,0,-80)" />
    <rect
       style="fill:#7f7f7f;fill-opacity:1;stroke:none;display:inline"
       id="rect3813-54"
       width="16"
       height="1"
       x="-96"
       y="58"
       transform="matrix(0,-1,1,0,0,-80)" />
    <rect
       style="fill:#7f7f7f;fill-opacity:1;stroke:none;display:inline"
       id="rect3813-1-1"
       width="16"
       height="1"
       x="-96"
       y="53"
       transform="matrix(0,-1,1,0,0,-80)" />
    <rect
       style="fill:#7f7f7f;fill-opacity:1;stroke:none;display:inline"
       id="rect3813-1-0-1"
       width="16"
       height="1"
       x="48"
       y="37" />
    <rect
       style="fill:#7f7f7f;fill-opacity:1;stroke:none;display:inline"
       id="rect3813-73-4"
       width="16"
       height="1"
       x="-48"
       y="58"
       transform="matrix(0,-1,1,0,0,0)" />
    <rect
       style="fill:#7f7f7f;fill-opacity:1;stroke:none;display:inline"
       id="rect3813-1-3-3"
       width="16"
       height="1"
       x="-48"
       y="53"
       transform="matrix(0,-1,1,0,0,0)" />
    <rect
       style="fill:#7f7f7f;fill-opacity:1;stroke:none;display:inline"
       id="rect3813-5-0"
       width="16"
       height="1"
       x="48"
       y="42" />
  </g>
  <g
     inkscape:groupmode="layer"
     id="layer1"
     inkscape:label="StraightSec"
     style="display:inline"
     transform="translate(0,-64)">
    <g
       style="display:inline"
       id="g5539"
       transform="translate(31.844568,16.161429)">
      <rect
         transform="matrix(0.70710678,-0.70710678,0.70710678,0.70710678,0,0)"
         y="57.289745"
         x="-65.460464"
         height="10"
         width="2"
         id="rect3041-9-3"
         style="fill:#000000;fill-opacity:1;stroke:none;display:inline" />
      <rect
         transform="matrix(0.70710678,-0.70710678,0.70710678,0.70710678,0,0)"
         y="57.289112"
         x="-64.753387"
         height="10"
         width="2"
         id="rect3041-9"
         style="fill:#997f4c;fill-opacity:1;stroke:none;display:inline" />
    </g>
    <g
       style="display:inline"
       id="g5543"
       transform="translate(31.682148,16.323849)">
      <rect
         transform="matrix(0.70710678,-0.70710678,0.70710678,0.70710678,0,0)"
         y="57.289745"
         x="-61.460468"
         height="10"
         width="2"
         id="rect3041-8-33"
         style="fill:#000000;fill-opacity:1;stroke:none;display:inline" />
      <rect
         transform="matrix(0.70710678,-0.70710678,0.70710678,0.70710678,0,0)"
         y="57.289112"
         x="-60.753391"
         height="10"
         width="2"
         id="rect3041-8"
         style="fill:#997f4c;fill-opacity:1;stroke:none;display:inline" />
    </g>
    <g
       style="display:inline"
       id="g5547"
       transform="translate(31.520718,16.485279)">
      <rect
         transform="matrix(0.70710678,-0.70710678,0.70710678,0.70710678,0,0)"
         y="57.289745"
         x="-57.460468"
         height="10"
         width="2"
         id="rect3041-2-7"
         style="fill:#000000;fill-opacity:1;stroke:none;display:inline" />
      <rect
         transform="matrix(0.70710678,-0.70710678,0.70710678,0.70710678,0,0)"
         y="57.289112"
         x="-56.753391"
         height="10"
         width="2"
         id="rect3041-2"
         style="fill:#997f4c;fill-opacity:1;stroke:none;display:inline" />
    </g>
    <g
       style="display:inline"
       id="g5555"
       transform="translate(31.196868,16.809129)">
      <rect
         transform="matrix(0.70710678,-0.70710678,0.70710678,0.70710678,0,0)"
         y="57.289745"
         x="-49.460468"
         height="10"
         width="2"
         id="rect3041-9-6-3"
         style="fill:#000000;fill-opacity:1;stroke:none;display:inline" />
      <rect
         transform="matrix(0.70710678,-0.70710678,0.70710678,0.70710678,0,0)"
         y="57.289112"
         x="-48.753391"
         height="10"
         width="2"
         id="rect3041-9-6"
         style="fill:#997f4c;fill-opacity:1;stroke:none;display:inline" />
    </g>
    <g
       style="display:inline"
       id="g5551"
       transform="translate(31.359288,16.646699)">
      <rect
         transform="matrix(0.70710678,-0.70710678,0.70710678,0.70710678,0,0)"
         y="57.289745"
         x="-53.460468"
         height="10"
         width="2"
         id="rect3041-92-8"
         style="fill:#000000;fill-opacity:1;stroke:none;display:inline" />
      <rect
         transform="matrix(0.70710678,-0.70710678,0.70710678,0.70710678,0,0)"
         y="57.289112"
         x="-52.753391"
         height="10"
         width="2"
         id="rect3041-92"
         style="fill:#997f4c;fill-opacity:1;stroke:none;display:inline" />
    </g>
    <path
       style="fill:#7f7f7f;fill-opacity:1;stroke:none;display:inline"
       d="M 30.159249,110.1905 46.20612,94.143624 45.5655,93.346749 29.471749,109.4405 z"
       id="rect3813"
       inkscape:connector-curvature="0"
       sodipodi:nodetypes="ccccc" />
    <path
       style="fill:#7f7f7f;fill-opacity:1;stroke:none;display:inline"
       d="M 26.651044,106.63542 42.6854,90.591654 41.9405,89.909249 25.924874,105.92487 z"
       id="rect3813-1"
       inkscape:connector-curvature="0"
       sodipodi:nodetypes="ccccc" />
  </g>
  <g
     inkscape:groupmode="layer"
     id="layer6"
     inkscape:label="Spokes"
     sodipodi:insensitive="true"
     style="display:none"
     transform="translate(0,16)">
    <path
       style="fill:none;stroke:#000000;stroke-width:0.2;stroke-linecap:butt;stroke-linejoin:miter;stroke-miterlimit:4;stroke-opacity:1;stroke-dasharray:none;display:inline"
       d="M 0,0 47.934,2.512"
       id="path3158"
       inkscape:connector-curvature="0"
       sodipodi:nodetypes="cc" />
    <path
       style="fill:none;stroke:#000000;stroke-width:0.2;stroke-linecap:butt;stroke-linejoin:miter;stroke-miterlimit:4;stroke-opacity:1;stroke-dasharray:none;display:inline"
       d="M 0,0 47.409,7.509"
       id="path3158-8"
       inkscape:connector-curvature="0"
       sodipodi:nodetypes="cc" />
    <path
       style="fill:none;stroke:#000000;stroke-width:0.2;stroke-linecap:butt;stroke-linejoin:miter;stroke-miterlimit:4;stroke-opacity:1;stroke-dasharray:none;display:inline"
       d="M 0,0 33.941,33.941"
       id="path3158-82"
       inkscape:connector-curvature="0"
       sodipodi:nodetypes="cc" />
    <path
       style="fill:none;stroke:#000000;stroke-width:0.2;stroke-linecap:butt;stroke-linejoin:miter;stroke-miterlimit:4;stroke-opacity:1;stroke-dasharray:none;display:inline"
       d="M 0,0 26.143,40.256"
       id="path3158-4"
       inkscape:connector-curvature="0"
       sodipodi:nodetypes="cc" />
    <path
       style="fill:none;stroke:#000000;stroke-width:0.2;stroke-linecap:butt;stroke-linejoin:miter;stroke-miterlimit:4;stroke-opacity:1;stroke-dasharray:none;display:inline"
       d="M 0,0 21.792,42.768"
       id="path3158-5"
       inkscape:connector-curvature="0"
       sodipodi:nodetypes="cc" />
    <path
       style="fill:none;stroke:#000000;stroke-width:0.2;stroke-linecap:butt;stroke-linejoin:miter;stroke-miterlimit:4;stroke-opacity:1;stroke-dasharray:none;display:inline"
       d="M 0,0 37.303,30.207"
       id="path3158-51"
       inkscape:connector-curvature="0"
       sodipodi:nodetypes="cc" />
    <path
       style="fill:none;stroke:#000000;stroke-width:0.2;stroke-linecap:butt;stroke-linejoin:miter;stroke-miterlimit:4;stroke-opacity:1;stroke-dasharray:none;display:inline"
       d="M 0,0 42.768,21.792"
       id="path3158-7"
       inkscape:connector-curvature="0"
       sodipodi:nodetypes="cc" />
    <path
       style="fill:none;stroke:#000000;stroke-width:0.2;stroke-linecap:butt;stroke-linejoin:miter;stroke-miterlimit:4;stroke-opacity:1;stroke-dasharray:none;display:inline"
       d="M 0,0 44.812,17.202"
       id="path3158-1"
       inkscape:connector-curvature="0"
       sodipodi:nodetypes="cc" />
    <path
       style="fill:none;stroke:#000000;stroke-width:0.2;stroke-linecap:butt;stroke-linejoin:miter;stroke-miterlimit:4;stroke-opacity:1;stroke-dasharray:none;display:inline"
       d="M 0,0 46.364,12.423"
       id="path3158-15"
       inkscape:connector-curvature="0"
       sodipodi:nodetypes="cc" />
    <path
       style="fill:none;stroke:#000000;stroke-width:0.2;stroke-linecap:butt;stroke-linejoin:miter;stroke-miterlimit:4;stroke-opacity:1;stroke-dasharray:none;display:inline"
       d="M 0,0 30.207,37.303"
       id="path3158-2"
       inkscape:connector-curvature="0"
       sodipodi:nodetypes="cc" />
    <path
       style="fill:none;stroke:#000000;stroke-width:0.2;stroke-linecap:butt;stroke-linejoin:miter;stroke-miterlimit:4;stroke-opacity:1;stroke-dasharray:none;display:inline"
       d="M 0,0 12.423,46.364"
       id="path3158-76"
       inkscape:connector-curvature="0"
       sodipodi:nodetypes="cc" />
    <path
       style="fill:none;stroke:#000000;stroke-width:0.2;stroke-linecap:butt;stroke-linejoin:miter;stroke-miterlimit:4;stroke-opacity:1;stroke-dasharray:none;display:inline"
       d="M 0,0 40.256,26.143"
       id="path3158-14"
       inkscape:connector-curvature="0"
       sodipodi:nodetypes="cc" />
    <path
       style="fill:none;stroke:#000000;stroke-width:0.2;stroke-linecap:butt;stroke-linejoin:miter;stroke-miterlimit:4;stroke-opacity:1;stroke-dasharray:none;display:inline"
       d="M 0,0 2.512,47.934"
       id="path3158-23"
       inkscape:connector-curvature="0"
       sodipodi:nodetypes="cc" />
    <path
       style="fill:none;stroke:#000000;stroke-width:0.2;stroke-linecap:butt;stroke-linejoin:miter;stroke-miterlimit:4;stroke-opacity:1;stroke-dasharray:none;display:inline"
       d="M 17.202,44.812 0,0"
       id="path3158-23-2"
       inkscape:connector-curvature="0"
       sodipodi:nodetypes="cc" />
    <path
       style="fill:none;stroke:#000000;stroke-width:0.2;stroke-linecap:butt;stroke-linejoin:miter;stroke-miterlimit:4;stroke-opacity:1;stroke-dasharray:none;display:inline"
       d="M 0,0 7.509,47.409"
       id="path3158-23-21"
       inkscape:connector-curvature="0"
       sodipodi:nodetypes="cc" />
    <path
       inkscape:connector-curvature="0"
       style="fill:none;stroke:#000000;stroke-width:0.2;stroke-miterlimit:4;stroke-opacity:1;stroke-dasharray:none;display:inline"
       d="M 0,40 C 22.09138,40 40,22.09138 40,2.0025031e-7"
       id="path3992-2-8"
       sodipodi:nodetypes="cc" />
  </g>
</svg>
