<?xml version="1.0" encoding="UTF-8" standalone="no"?>
<!-- Created with Inkscape (http://www.inkscape.org/) -->

<svg
   xmlns:dc="http://purl.org/dc/elements/1.1/"
   xmlns:cc="http://creativecommons.org/ns#"
   xmlns:rdf="http://www.w3.org/1999/02/22-rdf-syntax-ns#"
   xmlns:svg="http://www.w3.org/2000/svg"
   xmlns="http://www.w3.org/2000/svg"
   xmlns:sodipodi="http://sodipodi.sourceforge.net/DTD/sodipodi-0.dtd"
   xmlns:inkscape="http://www.inkscape.org/namespaces/inkscape"
   width="16"
   height="32"
   id="svg3033"
   version="1.1"
   inkscape:version="0.48.2 r9819"
   sodipodi:docname="cross45.svg">
  <defs
     id="defs3035" />
  <sodipodi:namedview
     id="base"
     pagecolor="#ffffff"
     bordercolor="#666666"
     borderopacity="1.0"
     inkscape:pageopacity="0.0"
     inkscape:pageshadow="2"
     inkscape:zoom="20.566736"
     inkscape:cx="3.5999894"
     inkscape:cy="17.761555"
     inkscape:current-layer="layer8"
     showgrid="true"
     inkscape:grid-bbox="true"
     inkscape:document-units="px"
     inkscape:window-width="1680"
     inkscape:window-height="994"
     inkscape:window-x="-4"
     inkscape:window-y="-4"
     inkscape:window-maximized="1"
     inkscape:snap-global="false">
    <inkscape:grid
       type="xygrid"
       id="grid3919"
       empspacing="16"
       visible="true"
       enabled="true"
       snapvisiblegridlinesonly="true" />
  </sodipodi:namedview>
  <metadata
     id="metadata3038">
    <rdf:RDF>
      <cc:Work
         rdf:about="">
        <dc:format>image/svg+xml</dc:format>
        <dc:type
           rdf:resource="http://purl.org/dc/dcmitype/StillImage" />
        <dc:title></dc:title>
      </cc:Work>
    </rdf:RDF>
  </metadata>
  <g
     inkscape:groupmode="layer"
     id="layer8"
     inkscape:label="Straight"
     transform="translate(0,-64)">
    <rect
       style="fill:#000000;fill-opacity:1;stroke:none;display:inline"
       id="rect3041-2-7-8"
       width="2"
       height="10"
       x="-23.68898"
       y="1.237847"
       transform="matrix(-0.70710678,-0.70710678,-0.70710678,0.70710678,0,64)" />
    <path
       style="opacity:0.35;fill:#000000;fill-opacity:1;stroke:none;display:inline"
       d="M 24.15625,4.1875 -3.15625,31.5 -2.4375,32.1875 24.875,4.875 z"
       transform="translate(0,64)"
       id="rect3813-7"
       inkscape:connector-curvature="0"
       sodipodi:nodetypes="ccccc" />
    <rect
       style="fill:#000000;fill-opacity:1;stroke:none;display:inline"
       id="rect3041-4-2-4"
       width="2.0000069"
       height="10.000034"
       x="-12.375261"
       y="1.237893"
       transform="matrix(-0.70710922,-0.70710434,-0.70710922,0.70710434,0,64)" />
    <path
       style="opacity:0.35;fill:#000000;fill-opacity:1;stroke:none;display:inline"
       d="M 20.625,0.625 -6.6875,27.96875 -6,28.65625 21.34375,1.34375 z"
       transform="translate(0,64)"
       id="rect3813-1-4"
       inkscape:connector-curvature="0"
       sodipodi:nodetypes="ccccc" />
    <g
       id="g5539"
       transform="translate(-0.16142909,0.1614266)">
      <rect
         transform="matrix(0.70710678,-0.70710678,0.70710678,0.70710678,0,0)"
         y="57.289745"
         x="-65.460464"
         height="10"
         width="2"
         id="rect3041-9-3"
         style="fill:#000000;fill-opacity:1;stroke:none;display:inline" />
      <rect
         transform="matrix(0.70710678,-0.70710678,0.70710678,0.70710678,0,0)"
         y="57.289112"
         x="-64.753387"
         height="10"
         width="2"
         id="rect3041-9"
         style="fill:#997f4c;fill-opacity:1;stroke:none;display:inline" />
    </g>
    <g
       id="g5543"
       transform="translate(-0.32385352,0.32385102)">
      <rect
         transform="matrix(0.70710678,-0.70710678,0.70710678,0.70710678,0,0)"
         y="57.289745"
         x="-61.460468"
         height="10"
         width="2"
         id="rect3041-8-33"
         style="fill:#000000;fill-opacity:1;stroke:none;display:inline" />
      <rect
         transform="matrix(0.70710678,-0.70710678,0.70710678,0.70710678,0,0)"
         y="57.289112"
         x="-60.753391"
         height="10"
         width="2"
         id="rect3041-8"
         style="fill:#997f4c;fill-opacity:1;stroke:none;display:inline" />
    </g>
    <g
       id="g5535">
      <rect
         transform="matrix(0.70710678,-0.70710678,0.70710678,0.70710678,0,0)"
         y="57.289745"
         x="-69.460464"
         height="10"
         width="2"
         id="rect3041-4"
         style="fill:#000000;fill-opacity:1;stroke:none;display:inline" />
      <rect
         transform="matrix(0.70710678,-0.70710678,0.70710678,0.70710678,0,0)"
         y="57.289112"
         x="-68.753387"
         height="10"
         width="2"
         id="rect3041"
         style="fill:#997f4c;fill-opacity:1;stroke:none;display:inline" />
    </g>
    <g
       id="g5547"
       transform="translate(-0.48528064,0.48527814)">
      <rect
         transform="matrix(0.70710678,-0.70710678,0.70710678,0.70710678,0,0)"
         y="57.289745"
         x="-57.460468"
         height="10"
         width="2"
         id="rect3041-2-7"
         style="fill:#000000;fill-opacity:1;stroke:none;display:inline" />
      <rect
         transform="matrix(0.70710678,-0.70710678,0.70710678,0.70710678,0,0)"
         y="57.289112"
         x="-56.753391"
         height="10"
         width="2"
         id="rect3041-2"
         style="fill:#997f4c;fill-opacity:1;stroke:none;display:inline" />
    </g>
    <g
       style="opacity:1"
       id="g5587"
       transform="translate(-0.16144552,64.161427)">
      <rect
         transform="matrix(0.70710922,-0.70710434,0.70710922,0.70710434,0,0)"
         y="12.034914"
         x="2.4217572"
         height="10.000034"
         width="2.0000069"
         id="rect3041-9-3-1"
         style="fill:#000000;fill-opacity:1;stroke:none;display:inline" />
      <rect
         transform="matrix(0.70710922,-0.70710434,0.70710922,0.70710434,0,0)"
         y="12.034281"
         x="3.1288383"
         height="10.000034"
         width="2.0000069"
         id="rect3041-9-9"
         style="fill:#997f4c;fill-opacity:1;stroke:none;display:inline" />
    </g>
    <g
       style="opacity:1"
       id="g5591"
       transform="translate(-0.32388881,64.323851)">
      <rect
         transform="matrix(0.70710922,-0.70710434,0.70710922,0.70710434,0,0)"
         y="12.034914"
         x="6.4217663"
         height="10.000034"
         width="2.0000069"
         id="rect3041-8-33-8"
         style="fill:#000000;fill-opacity:1;stroke:none;display:inline" />
      <rect
         transform="matrix(0.70710922,-0.70710434,0.70710922,0.70710434,0,0)"
         y="12.034281"
         x="7.1288486"
         height="10.000034"
         width="2.0000069"
         id="rect3041-8-9"
         style="fill:#997f4c;fill-opacity:1;stroke:none;display:inline" />
    </g>
    <g
       style="opacity:1"
       id="g5595"
       transform="translate(-0.4853358,64.485279)">
      <rect
         transform="matrix(0.70710922,-0.70710434,0.70710922,0.70710434,0,0)"
         y="12.034914"
         x="10.421781"
         height="10.000034"
         width="2.0000069"
         id="rect3041-2-7-7"
         style="fill:#000000;fill-opacity:1;stroke:none;display:inline" />
      <rect
         transform="matrix(0.70710922,-0.70710434,0.70710922,0.70710434,0,0)"
         y="12.034281"
         x="11.128862"
         height="10.000034"
         width="2.0000069"
         id="rect3041-2-2"
         style="fill:#997f4c;fill-opacity:1;stroke:none;display:inline" />
    </g>
    <g
       style="opacity:1"
       id="g5583"
       transform="translate(0,64)">
      <rect
         transform="matrix(0.70710922,-0.70710434,0.70710922,0.70710434,0,0)"
         y="12.034914"
         x="-1.5782565"
         height="10.000034"
         width="2.0000069"
         id="rect3041-4-2"
         style="fill:#000000;fill-opacity:1;stroke:none;display:inline" />
      <rect
         transform="matrix(0.70710922,-0.70710434,0.70710922,0.70710434,0,0)"
         y="12.034281"
         x="-0.87117541"
         height="10.000034"
         width="2.0000069"
         id="rect3041-82"
         style="fill:#997f4c;fill-opacity:1;stroke:none;display:inline" />
    </g>
    <path
       style="opacity:1;fill:#7f7f7f;fill-opacity:1;stroke:none;display:inline"
       d="M 23.4375,3.46875 -3.875,30.78125 -3.15625,31.5 24.15625,4.1875 z"
       id="rect3813"
       inkscape:connector-curvature="0"
       sodipodi:nodetypes="ccccc"
       transform="translate(0,64)" />
    <path
       style="opacity:1;fill:#7f7f7f;fill-opacity:1;stroke:none;display:inline"
       d="M 19.90625,-0.0625 -7.40625,27.25 -6.6875,27.96875 c 0,0 10.6488196,-10.684494 16,-16 C 13.216761,8.0093746 20.625,0.625 20.625,0.625 z"
       id="rect3813-1"
       inkscape:connector-curvature="0"
       sodipodi:nodetypes="cccccc"
       transform="translate(0,64)" />
    <rect
       style="fill:#000000;fill-opacity:1;stroke:none;display:inline"
       id="rect3041-9-3-17"
       width="2"
       height="10"
       x="-31.230982"
       y="1.237847"
       transform="matrix(-0.70710678,-0.70710678,-0.70710678,0.70710678,0,64)" />
    <rect
       style="fill:#997f4c;fill-opacity:1;stroke:none;display:inline"
       id="rect3041-9-4"
       width="2"
       height="10"
       x="-31.230761"
       y="0.53034645"
       transform="matrix(-0.70710678,-0.70710678,-0.70710678,0.70710678,0,64)" />
    <rect
       style="fill:#000000;fill-opacity:1;stroke:none;display:inline"
       id="rect3041-8-33-0"
       width="2"
       height="10"
       x="-27.460686"
       y="1.2378508"
       transform="matrix(-0.70710678,-0.70710678,-0.70710678,0.70710678,0,64)" />
    <rect
       style="fill:#997f4c;fill-opacity:1;stroke:none;display:inline"
       id="rect3041-8-94"
       width="2"
       height="10"
       x="-27.460464"
       y="0.53035027"
       transform="matrix(-0.70710678,-0.70710678,-0.70710678,0.70710678,0,64)" />
    <rect
       style="fill:#997f4c;fill-opacity:1;stroke:none;display:inline"
       id="rect3041-2-8"
       width="2"
       height="10"
       x="-23.688759"
       y="0.53034645"
       transform="matrix(-0.70710678,-0.70710678,-0.70710678,0.70710678,0,64)" />
    <rect
       style="fill:#000000;fill-opacity:1;stroke:none;display:inline"
       id="rect3041-4-24"
       width="2"
       height="10"
       x="-35.002689"
       y="1.2378508"
       transform="matrix(-0.70710678,-0.70710678,-0.70710678,0.70710678,0,64)" />
    <rect
       style="fill:#997f4c;fill-opacity:1;stroke:none;display:inline"
       id="rect3041-5"
       width="2"
       height="10"
       x="-35.002468"
       y="0.53035027"
       transform="matrix(-0.70710678,-0.70710678,-0.70710678,0.70710678,0,64)" />
    <rect
       style="fill:#000000;fill-opacity:1;stroke:none;display:inline"
       id="rect3041-9-3-1-1"
       width="2.0000069"
       height="10.000034"
       x="-8.6035509"
       y="1.2378815"
       transform="matrix(-0.70710922,-0.70710434,-0.70710922,0.70710434,0,64)" />
    <rect
       style="fill:#997f4c;fill-opacity:1;stroke:none;display:inline"
       id="rect3041-9-9-5"
       width="2.0000069"
       height="10.000034"
       x="-8.6033373"
       y="0.53038108"
       transform="matrix(-0.70710922,-0.70710434,-0.70710922,0.70710434,0,64)" />
    <rect
       style="fill:#000000;fill-opacity:1;stroke:none;display:inline"
       id="rect3041-8-33-8-2"
       width="2.0000069"
       height="10.000034"
       x="-4.8332624"
       y="1.2378663"
       transform="matrix(-0.70710922,-0.70710434,-0.70710922,0.70710434,0,64)" />
    <rect
       style="fill:#997f4c;fill-opacity:1;stroke:none;display:inline"
       id="rect3041-8-9-7"
       width="2.0000069"
       height="10.000034"
       x="-4.8330441"
       y="0.53036582"
       transform="matrix(-0.70710922,-0.70710434,-0.70710922,0.70710434,0,64)" />
    <rect
       style="fill:#000000;fill-opacity:1;stroke:none;display:inline"
       id="rect3041-2-7-7-6"
       width="2.0000069"
       height="10.000034"
       x="-1.0615555"
       y="1.237851"
       transform="matrix(-0.70710922,-0.70710434,-0.70710922,0.70710434,0,64)" />
    <rect
       style="fill:#997f4c;fill-opacity:1;stroke:none;display:inline"
       id="rect3041-2-2-1"
       width="2.0000069"
       height="10.000034"
       x="-1.0613381"
       y="0.53035438"
       transform="matrix(-0.70710922,-0.70710434,-0.70710922,0.70710434,0,64)" />
    <rect
       style="fill:#997f4c;fill-opacity:1;stroke:none;display:inline"
       id="rect3041-82-2"
       width="2.0000069"
       height="10.000034"
       x="-12.375048"
       y="0.53039253"
       transform="matrix(-0.70710922,-0.70710434,-0.70710922,0.70710434,0,64)" />
    <path
       style="fill:#7f7f7f;fill-opacity:1;stroke:none;display:inline"
       d="M -7.1685,3.4687393 20.144,30.781239 19.42525,31.499989 -7.88725,4.1874893 z"
       id="rect3813-3"
       inkscape:connector-curvature="0"
       sodipodi:nodetypes="ccccc"
       transform="translate(0,64)" />
    <path
       style="fill:#7f7f7f;fill-opacity:1;stroke:none;display:inline"
       d="m -3.63725,-0.06251072 27.3125,27.31249972 -0.71875,0.71875 c 0,0 -10.64882,-10.684494 -15.9999995,-16 C 3.0522392,8.0093643 -4.356,0.62498928 -4.356,0.62498928 z"
       id="rect3813-1-2"
       inkscape:connector-curvature="0"
       sodipodi:nodetypes="cccccc"
       transform="translate(0,64)" />
  </g>
</svg>
