<?xml version="1.0" encoding="UTF-8" standalone="no"?>
<!-- Created with Inkscape (http://www.inkscape.org/) -->

<svg
   xmlns:dc="http://purl.org/dc/elements/1.1/"
   xmlns:cc="http://creativecommons.org/ns#"
   xmlns:rdf="http://www.w3.org/1999/02/22-rdf-syntax-ns#"
   xmlns:svg="http://www.w3.org/2000/svg"
   xmlns="http://www.w3.org/2000/svg"
   xmlns:sodipodi="http://sodipodi.sourceforge.net/DTD/sodipodi-0.dtd"
   xmlns:inkscape="http://www.inkscape.org/namespaces/inkscape"
   width="48"
   height="48"
   id="svg3033"
   version="1.1"
   inkscape:version="0.48.2 r9819"
   sodipodi:docname="new_curves.svg">
  <defs
     id="defs3035" />
  <sodipodi:namedview
     id="base"
     pagecolor="#ffffff"
     bordercolor="#666666"
     borderopacity="1.0"
     inkscape:pageopacity="0.0"
     inkscape:pageshadow="2"
     inkscape:zoom="5.5494505"
     inkscape:cx="22.006851"
     inkscape:cy="26.869435"
     inkscape:current-layer="layer4"
     showgrid="true"
     inkscape:grid-bbox="true"
     inkscape:document-units="px"
     inkscape:window-width="1119"
     inkscape:window-height="617"
     inkscape:window-x="1514"
     inkscape:window-y="153"
     inkscape:window-maximized="0"
     inkscape:snap-global="false">
    <inkscape:grid
       type="xygrid"
       id="grid3919"
       empspacing="16"
       visible="true"
       enabled="true"
       snapvisiblegridlinesonly="true" />
  </sodipodi:namedview>
  <metadata
     id="metadata3038">
    <rdf:RDF>
      <cc:Work
         rdf:about="">
        <dc:format>image/svg+xml</dc:format>
        <dc:type
           rdf:resource="http://purl.org/dc/dcmitype/StillImage" />
        <dc:title></dc:title>
      </cc:Work>
    </rdf:RDF>
  </metadata>
  <g
     inkscape:groupmode="layer"
     id="layer3"
     inkscape:label="Shadow"
     style="display:inline"
     transform="translate(0,32)">
    <rect
       style="opacity:0.35;fill:#000000;fill-opacity:1;stroke:none"
       id="rect3813-7"
       width="16"
       height="1"
       x="16"
       y="43"
       transform="matrix(0,-1,1,0,0,0)" />
    <rect
       style="opacity:0.35;fill:#000000;fill-opacity:1;stroke:none"
       id="rect3813-1-4"
       width="16"
       height="1"
       x="16"
       y="38"
       transform="matrix(0,-1,1,0,0,0)" />
  </g>
  <g
     inkscape:groupmode="layer"
     id="layer2"
     inkscape:label="Ties"
     style="display:inline"
     transform="translate(0,32)">
    <rect
       style="fill:#000000;fill-opacity:1;stroke:none"
       id="rect3811-0"
       width="3"
       height="11"
       x="20"
       y="34"
       transform="matrix(0,-1,1,0,0,0)" />
    <rect
       style="fill:#997f4c;fill-opacity:1;stroke:none"
       id="rect3041-9"
       width="2"
       height="10"
       x="21"
       y="35"
       transform="matrix(0,-1,1,0,0,0)" />
    <rect
       style="fill:#000000;fill-opacity:1;stroke:none"
       id="rect3811-4"
       width="3"
       height="11"
       x="24"
       y="34"
       transform="matrix(0,-1,1,0,0,0)" />
    <rect
       style="fill:#997f4c;fill-opacity:1;stroke:none"
       id="rect3041-8"
       width="2"
       height="10"
       x="25"
       y="35"
       transform="matrix(0,-1,1,0,0,0)" />
    <rect
       style="fill:#000000;fill-opacity:1;stroke:none"
       id="rect3811-8"
       width="3"
       height="11"
       x="28"
       y="34"
       transform="matrix(0,-1,1,0,0,0)" />
    <rect
       style="fill:#997f4c;fill-opacity:1;stroke:none"
       id="rect3041-2"
       width="2"
       height="10"
       x="29"
       y="35"
       transform="matrix(0,-1,1,0,0,0)" />
    <rect
       style="fill:#000000;fill-opacity:1;stroke:none"
       id="rect3811"
       width="3"
       height="11"
       x="16"
       y="34"
       transform="matrix(0,-1,1,0,0,0)" />
    <rect
       style="fill:#997f4c;fill-opacity:1;stroke:none"
       id="rect3041"
       width="2"
       height="10"
       x="17"
       y="35"
       transform="matrix(0,-1,1,0,0,0)" />
    <rect
       style="opacity:0.35;fill:#000000;fill-opacity:1;stroke:none;display:inline"
       id="rect3813-7-4"
       width="16"
       height="1"
       x="0"
       y="11" />
    <rect
       style="opacity:0.35;fill:#000000;fill-opacity:1;stroke:none;display:inline"
       id="rect3813-1-4-5"
       width="16"
       height="1"
       x="0"
       y="6" />
    <rect
       style="fill:#000000;fill-opacity:1;stroke:none"
       id="rect3811-0-5"
       width="3"
       height="11"
       x="4"
       y="3" />
    <rect
       style="fill:#997f4c;fill-opacity:1;stroke:none"
       id="rect3041-9-1"
       width="2"
       height="10"
       x="5"
       y="3" />
    <rect
       style="fill:#000000;fill-opacity:1;stroke:none"
       id="rect3811-4-7"
       width="3"
       height="11"
       x="8"
       y="3" />
    <rect
       style="fill:#997f4c;fill-opacity:1;stroke:none"
       id="rect3041-8-1"
       width="2"
       height="10"
       x="9"
       y="3" />
    <rect
       style="fill:#000000;fill-opacity:1;stroke:none"
       id="rect3811-8-1"
       width="3"
       height="11"
       x="12"
       y="3" />
    <rect
       style="fill:#997f4c;fill-opacity:1;stroke:none"
       id="rect3041-2-5"
       width="2"
       height="10"
       x="13"
       y="3" />
    <rect
       style="fill:#000000;fill-opacity:1;stroke:none"
       id="rect3811-2"
       width="3"
       height="11"
       x="0"
       y="3" />
    <rect
       style="fill:#997f4c;fill-opacity:1;stroke:none"
       id="rect3041-7"
       width="2"
       height="10"
       x="1"
       y="3" />
    <rect
       style="fill:#7f7f7f;fill-opacity:1;stroke:none;display:inline"
       id="rect3813-6"
       width="16"
       height="1"
       x="0"
       y="10" />
    <rect
       style="fill:#7f7f7f;fill-opacity:1;stroke:none;display:inline"
       id="rect3813-1-1"
       width="16"
       height="1"
       x="0"
       y="5" />
  </g>
  <g
     id="layer1"
     inkscape:label="Rails"
     inkscape:groupmode="layer"
     style="display:inline"
     transform="translate(0,32)">
    <rect
       style="fill:#7f7f7f;fill-opacity:1;stroke:none"
       id="rect3813"
       width="16"
       height="1"
       x="16"
       y="42"
       transform="matrix(0,-1,1,0,0,0)" />
    <rect
       style="fill:#7f7f7f;fill-opacity:1;stroke:none"
       id="rect3813-1"
       width="16"
       height="1"
       x="16"
       y="37"
       transform="matrix(0,-1,1,0,0,0)" />
  </g>
  <g
     inkscape:groupmode="layer"
     id="layer4"
     inkscape:label="CurveGuide">
    <rect
       style="fill:#997f4c;fill-opacity:1;stroke:none;display:inline"
       id="rect3041-9-1-2"
       width="2"
       height="10"
       x="-2.4511664"
       y="34.814484"
       transform="matrix(0.8660254,-0.5,0.5,0.8660254,0,0)" />
    <rect
       style="fill:#997f4c;fill-opacity:1;stroke:none;display:inline"
       id="rect3041-8-1-33"
       width="2"
       height="10"
       x="1.5488341"
       y="34.814484"
       transform="matrix(0.8660254,-0.5,0.5,0.8660254,0,0)" />
    <rect
       style="fill:#997f4c;fill-opacity:1;stroke:none;display:inline"
       id="rect3041-7-4"
       width="2"
       height="10"
       x="-6.4511662"
       y="34.814484"
       transform="matrix(0.8660254,-0.5,0.5,0.8660254,0,0)" />
    <rect
       style="fill:#997f4c;fill-opacity:1;stroke:none;display:inline"
       id="rect3041-9-1-1"
       width="2"
       height="10"
       x="-1.5996255"
       y="34.984566"
       transform="matrix(0.98125192,-0.19272953,0.19272953,0.98125192,0,0)" />
    <rect
       style="fill:#997f4c;fill-opacity:1;stroke:none;display:inline"
       id="rect3041-8-1-1"
       width="2"
       height="10"
       x="-3.5136752"
       y="34.952133"
       transform="matrix(0.94251374,-0.33416741,0.33416741,0.94251374,0,0)" />
    <rect
       style="fill:#997f4c;fill-opacity:1;stroke:none;display:inline"
       id="rect3041-7-3"
       width="2"
       height="10"
       x="-1.5892607"
       y="35.209011"
       transform="matrix(0.99643796,-0.08432901,0.08432901,0.99643796,0,0)" />
    <rect
       style="display:inline;fill:#997f4c;fill-opacity:1;stroke:none"
       id="rect3041-9-1-4"
       width="2"
       height="10"
       x="21.70723"
       y="12.302412"
       transform="matrix(0.70710678,-0.70710678,0.70710678,0.70710678,0,32)" />
    <rect
       style="display:inline;fill:#997f4c;fill-opacity:1;stroke:none"
       id="rect3041-8-1-3"
       width="2"
       height="10"
       x="25.707228"
       y="12.302412"
       transform="matrix(0.70710678,-0.70710678,0.70710678,0.70710678,0,32)" />
    <rect
       style="display:inline;fill:#997f4c;fill-opacity:1;stroke:none"
       id="rect3041-7-1"
       width="2"
       height="10"
       x="17.70723"
       y="12.302412"
       transform="matrix(0.70710678,-0.70710678,0.70710678,0.70710678,0,32)" />
    <path
       style="opacity:1;fill:#7f7f7f;fill-opacity:1;stroke:none"
       d="M 0 -38 C -20.98682 -38 -38 -20.98682 -38 0 C -38 20.98682 -20.98682 38 0 38 C 20.98682 38 38 20.98682 38 0 C 38 -20.98682 20.98682 -38 0 -38 z M 0 -37 C 20.434536 -37 37 -20.434536 37 0 C 37 20.434536 20.434536 37 0 37 C -20.434536 37 -37 20.434536 -37 0 C -37 -20.434536 -20.434536 -37 0 -37 z "
       id="path3992-2" />
    <path
       style="opacity:1;fill:#7f7f7f;fill-opacity:1;stroke:none"
       d="M 0 -43 C -23.748244 -43 -43 -23.748244 -43 0 C -43 23.748244 -23.748244 43 0 43 C 23.748244 43 43 23.748244 43 0 C 43 -23.748244 23.748244 -43 0 -43 z M 0 -42 C 23.195959 -42 42 -23.195959 42 0 C 42 23.195959 23.195959 42 0 42 C -23.195959 42 -42 23.195959 -42 0 C -42 -23.195959 -23.195959 -42 0 -42 z "
       id="path4043" />
  </g>
</svg>
