<?xml version="1.0" encoding="UTF-8" standalone="no"?>
<!-- Created with Inkscape (http://www.inkscape.org/) -->

<svg
   xmlns:dc="http://purl.org/dc/elements/1.1/"
   xmlns:cc="http://creativecommons.org/ns#"
   xmlns:rdf="http://www.w3.org/1999/02/22-rdf-syntax-ns#"
   xmlns:svg="http://www.w3.org/2000/svg"
   xmlns="http://www.w3.org/2000/svg"
   xmlns:sodipodi="http://sodipodi.sourceforge.net/DTD/sodipodi-0.dtd"
   xmlns:inkscape="http://www.inkscape.org/namespaces/inkscape"
   width="48"
   height="48"
   id="svg3033"
   version="1.1"
   inkscape:version="0.48.4 r9939"
   sodipodi:docname="new_curves.svg">
  <defs
     id="defs3035" />
  <sodipodi:namedview
     id="base"
     pagecolor="#ffffff"
     bordercolor="#666666"
     borderopacity="1.0"
     inkscape:pageopacity="0.0"
     inkscape:pageshadow="2"
     inkscape:zoom="7.8481082"
     inkscape:cx="9.3291466"
     inkscape:cy="24.860286"
     inkscape:current-layer="layer5"
     showgrid="true"
     inkscape:grid-bbox="true"
     inkscape:document-units="px"
     inkscape:window-width="1440"
     inkscape:window-height="838"
     inkscape:window-x="1432"
     inkscape:window-y="-8"
     inkscape:window-maximized="1"
     inkscape:snap-global="false">
    <inkscape:grid
       type="xygrid"
       id="grid3919"
       empspacing="16"
       visible="true"
       enabled="true"
       snapvisiblegridlinesonly="true" />
  </sodipodi:namedview>
  <metadata
     id="metadata3038">
    <rdf:RDF>
      <cc:Work
         rdf:about="">
        <dc:format>image/svg+xml</dc:format>
        <dc:type
           rdf:resource="http://purl.org/dc/dcmitype/StillImage" />
        <dc:title />
      </cc:Work>
    </rdf:RDF>
  </metadata>
  <g
     inkscape:groupmode="layer"
     id="layer3"
     inkscape:label="Shadow"
     style="display:inline"
     transform="translate(0,32)">
    <path
       inkscape:connector-curvature="0"
       style="opacity:0.3495575;fill:#000000;fill-opacity:1;stroke:none;display:inline"
       d="M 1,-37 C -19.98682,-37 -37,-19.98682 -37,0.99999937 -37,21.98682 -19.98682,39 1,39 21.254159,39 39,21.222305 39,0.99999937 39,-19.98682 21.98682,-37 1,-37 z m 0,1 c 20.434536,0 36.331049,15.514255 36.331049,35.94879061 C 37.331049,20.383327 20.638166,37.331049 0.20362973,37.331049 -20.230906,37.331049 -36,21.434536 -36,0.99999937 -36,-19.434536 -19.434536,-36 1,-36 z"
       id="path3992-2-5"
       transform="translate(0,-32)"
       sodipodi:nodetypes="ssssssssss" />
    <path
       inkscape:connector-curvature="0"
       style="opacity:0.3495575;fill:#000000;fill-opacity:1;stroke:none;display:inline"
       d="M 1,-42 C -22.748244,-42 -42,-22.748244 -42,0.99999937 -42,24.748244 -22.748244,44 1,44 23.633326,44 44,23.951874 44,0.99999937 44,-22.748244 24.748244,-42 1,-42 z m 0,1 C 24.195959,-41 42.235485,-23.151603 42.235485,0.04435505 42.235485,23.240315 23.463298,42.299194 0.26733935,42.299194 -22.92862,42.299194 -41,24.195959 -41,0.99999937 -41,-22.195959 -22.195959,-41 1,-41 z"
       id="path4043-7"
       transform="translate(0,-32)"
       sodipodi:nodetypes="ssssssssss" />
  </g>
  <g
     inkscape:groupmode="layer"
     id="layer5"
     inkscape:label="NewTies"
     style="display:inline">
    <rect
       style="fill:#000000;fill-opacity:1;stroke:none;display:inline"
       id="rect3041-9-1-2-6"
       width="2.0000031"
       height="10.000004"
       x="-1.3306609"
       y="35.23473"
       transform="matrix(0.89496161,-0.44614316,0.44614457,0.89496091,0,0)" />
    <rect
       style="fill:#000000;fill-opacity:1;stroke:none;display:inline"
       id="rect3041-8-1-33-1"
       width="2.0000029"
       height="10.000006"
       x="-1.5439065"
       y="35.129581"
       transform="matrix(0.84100499,-0.54102737,0.54102887,0.84100402,0,0)" />
    <rect
       style="fill:#000000;fill-opacity:1;stroke:none;display:inline"
       id="rect3041-7-4-8"
       width="2.0000033"
       height="10.000003"
       x="-1.5531955"
       y="35.263863"
       transform="matrix(0.93436312,-0.35632228,0.3563235,0.93436265,0,0)" />
    <rect
       style="fill:#997f4c;fill-opacity:1;stroke:none;display:inline"
       id="rect3041-9-1-2"
       width="2"
       height="10"
       x="-0.65992177"
       y="35.010841"
       transform="matrix(0.89496126,-0.44614387,0.44614387,0.89496126,0,0)" />
    <rect
       style="fill:#000000;fill-opacity:1;stroke:none;display:inline"
       id="rect3041-9-1-1-9"
       width="2.0000038"
       height="10"
       x="-1.3939102"
       y="35.437672"
       transform="matrix(0.9884497,-0.15154928,0.15154986,0.98844961,0,0)" />
    <rect
       style="fill:#997f4c;fill-opacity:1;stroke:none;display:inline"
       id="rect3041-8-1-33"
       width="2"
       height="10"
       x="-0.8527627"
       y="34.980125"
       transform="matrix(0.8410045,-0.54102812,0.54102812,0.8410045,0,0)" />
    <rect
       style="fill:#000000;fill-opacity:1;stroke:none;display:inline"
       id="rect3041-8-1-1-2"
       width="2.0000036"
       height="10.000001"
       x="-1.6886472"
       y="35.317764"
       transform="matrix(0.96554057,-0.26025259,0.26025355,0.96554031,0,0)" />
    <rect
       style="fill:#997f4c;fill-opacity:1;stroke:none;display:inline"
       id="rect3041-7-4"
       width="2"
       height="10"
       x="-0.90761346"
       y="34.975349"
       transform="matrix(0.93436288,-0.35632289,0.35632289,0.93436288,0,0)" />
    <rect
       style="fill:#000000;fill-opacity:1;stroke:none;display:inline"
       id="rect3041-7-3-7"
       width="2.0000038"
       height="10"
       x="-1.6642544"
       y="35.454453"
       transform="matrix(0.99847435,-0.05521754,0.05521776,0.99847434,0,0)" />
    <rect
       style="fill:#997f4c;fill-opacity:1;stroke:none;display:inline"
       id="rect3041-9-1-1"
       width="2"
       height="10"
       x="-0.82356912"
       y="35.019676"
       transform="matrix(0.98844966,-0.15154957,0.15154957,0.98844966,0,0)" />
    <rect
       style="fill:#000000;fill-opacity:1;stroke:none;display:inline"
       id="rect3041-9-1-1-1-9"
       width="2"
       height="10.000019"
       x="-0.063122191"
       y="34.54847"
       transform="matrix(-0.14779841,0.98901751,0.98901759,0.14779785,0,0)" />
    <rect
       style="fill:#997f4c;fill-opacity:1;stroke:none;display:inline"
       id="rect3041-8-1-1"
       width="2"
       height="10"
       x="-1.0754619"
       y="34.965603"
       transform="matrix(0.96554044,-0.26025307,0.26025307,0.96554044,0,0)" />
    <rect
       style="fill:#000000;fill-opacity:1;stroke:none;display:inline"
       id="rect3041-8-1-1-7-5"
       width="2.0000002"
       height="10.000018"
       x="-0.28908369"
       y="34.609497"
       transform="matrix(-0.25684986,0.96645132,0.96645157,0.25684892,0,0)" />
    <rect
       style="fill:#997f4c;fill-opacity:1;stroke:none;display:inline"
       id="rect3041-7-3"
       width="2"
       height="10"
       x="-1.1370261"
       y="34.983246"
       transform="matrix(0.99847434,-0.05521765,0.05521765,0.99847434,0,0)" />
    <rect
       style="fill:#000000;fill-opacity:1;stroke:none;display:inline"
       id="rect3041-7-3-4-4"
       width="2"
       height="10.00002"
       x="-0.59360182"
       y="34.508362"
       transform="matrix(-0.05535422,0.99846678,0.99846679,0.055354,0,0)" />
    <rect
       style="fill:#997f4c;fill-opacity:1;stroke:none;display:inline"
       id="rect3041-9-1-1-1"
       width="2"
       height="10"
       x="-0.6311965"
       y="34.969471"
       transform="matrix(-0.14779813,0.98901755,0.98901755,0.14779813,0,0)" />
    <rect
       style="fill:#000000;fill-opacity:1;stroke:none;display:inline"
       id="rect3041-8-1-1-7-0-3"
       width="2.0000005"
       height="10.000017"
       x="-0.09698166"
       y="34.714508"
       transform="matrix(-0.35258249,0.93578074,0.9357812,0.35258127,0,0)" />
    <rect
       style="fill:#997f4c;fill-opacity:1;stroke:none;display:inline"
       id="rect3041-8-1-1-7"
       width="2"
       height="10"
       x="-0.90045351"
       y="34.964725"
       transform="matrix(-0.25684939,0.96645144,0.96645144,0.25684939,0,0)" />
    <rect
       style="fill:#000000;fill-opacity:1;stroke:none;display:inline"
       id="rect3041-8-1-1-7-9-1"
       width="2.0000007"
       height="10.000015"
       x="-0.13828106"
       y="34.780224"
       transform="matrix(-0.4501586,0.89294862,0.89294933,0.45015719,0,0)" />
    <rect
       style="fill:#997f4c;fill-opacity:1;stroke:none;display:inline"
       id="rect3041-7-3-4"
       width="2"
       height="10"
       x="-1.1201378"
       y="34.980278"
       transform="matrix(-0.05535411,0.99846679,0.99846679,0.05535411,0,0)" />
    <rect
       style="fill:#000000;fill-opacity:1;stroke:none;display:inline"
       id="rect3041-8-1-1-7-4-2"
       width="2.0000012"
       height="10.000013"
       x="-0.41457137"
       y="34.86422"
       transform="matrix(-0.54662103,0.83738011,0.8373811,0.54661952,0,0)" />
    <rect
       style="fill:#997f4c;fill-opacity:1;stroke:none;display:inline"
       id="rect3041-8-1-1-7-0"
       width="2"
       height="10"
       x="-0.7409336"
       y="35.006565"
       transform="matrix(-0.35258188,0.93578097,0.93578097,0.35258188,0,0)" />
    <rect
       style="fill:#000000;fill-opacity:1;stroke:none;display:inline"
       id="rect3041-9-1-4-3"
       width="2.0000019"
       height="10.00001"
       x="-1.6910112"
       y="34.961151"
       transform="matrix(0.70710748,-0.70710609,0.70710748,0.70710609,0,0)" />
    <rect
       style="fill:#997f4c;fill-opacity:1;stroke:none;display:inline"
       id="rect3041-8-1-1-7-9"
       width="2"
       height="10"
       x="-0.80966103"
       y="35.002106"
       transform="matrix(-0.45015789,0.89294897,0.89294897,0.45015789,0,0)" />
    <rect
       style="fill:#000000;fill-opacity:1;stroke:none;display:inline"
       id="rect3041-8-1-3-3"
       width="2.0000014"
       height="10.000012"
       x="-1.8339376"
       y="34.909512"
       transform="matrix(0.62748076,-0.77863207,0.77863327,0.62747926,0,0)" />
    <rect
       style="fill:#997f4c;fill-opacity:1;stroke:none;display:inline"
       id="rect3041-8-1-1-7-4"
       width="2"
       height="10"
       x="-1.106459"
       y="35.010105"
       transform="matrix(-0.54662027,0.8373806,0.8373806,0.54662027,0,0)" />
    <rect
       style="fill:#000000;fill-opacity:1;stroke:none;display:inline"
       id="rect3041-7-1-4"
       width="2.0000024"
       height="10.000008"
       x="-1.8145198"
       y="35.06028"
       transform="matrix(0.77531761,-0.63157153,0.63157303,0.77531639,0,0)" />
    <rect
       style="fill:#997f4c;fill-opacity:1;stroke:none;display:inline"
       id="rect3041-9-1-4"
       width="2"
       height="10"
       x="-0.98389703"
       y="34.961685"
       transform="matrix(0.70710678,-0.70710678,0.70710678,0.70710678,0,0)" />
    <rect
       style="fill:#997f4c;fill-opacity:1;stroke:none;display:inline"
       id="rect3041-8-1-3"
       width="2"
       height="10"
       x="-1.1309345"
       y="34.985607"
       transform="matrix(0.62748001,-0.77863267,0.77863267,0.62748001,0,0)" />
    <rect
       style="fill:#997f4c;fill-opacity:1;stroke:none;display:inline"
       id="rect3041-7-1"
       width="2"
       height="10"
       x="-1.1110097"
       y="34.988945"
       transform="matrix(0.775317,-0.63157228,0.63157228,0.775317,0,0)" />
  </g>
  <g
     inkscape:groupmode="layer"
     id="layer4"
     inkscape:label="Rails"
     style="display:inline">
    <path
       style="fill:#7f7f7f;fill-opacity:1;stroke:none"
       d="m 0,-38 c -20.98682,0 -38,17.01318 -38,38 0,20.98682 17.01318,38 38,38 C 20.98682,38 38,20.98682 38,0 38,-20.98682 20.98682,-38 0,-38 z m 0,1 c 20.434536,0 37,16.565464 37,37 0,20.434536 -16.565464,37 -37,37 -20.434536,0 -37,-16.565464 -37,-37 0,-20.434536 16.565464,-37 37,-37 z"
       id="path3992-2"
       inkscape:connector-curvature="0" />
    <path
       style="fill:#7f7f7f;fill-opacity:1;stroke:none"
       d="m 0,-43 c -23.748244,0 -43,19.251756 -43,43 0,23.748244 19.251756,43 43,43 C 23.748244,43 43,23.748244 43,0 43,-23.748244 23.748244,-43 0,-43 z m 0,1 c 23.195959,0 42,18.804041 42,42 0,23.195959 -18.804041,42 -42,42 -23.195959,0 -42,-18.804041 -42,-42 0,-23.195959 18.804041,-42 42,-42 z"
       id="path4043"
       inkscape:connector-curvature="0" />
  </g>
  <g
     inkscape:groupmode="layer"
     id="layer6"
     inkscape:label="Spokes"
     sodipodi:insensitive="true"
     style="display:none">
    <path
       style="fill:none;stroke:#000000;stroke-width:0.2;stroke-linecap:butt;stroke-linejoin:miter;stroke-miterlimit:4;stroke-opacity:1;stroke-dasharray:none;display:inline"
       d="M 0,0 47.934,2.512"
       id="path3158"
       inkscape:connector-curvature="0"
       sodipodi:nodetypes="cc" />
    <path
       style="fill:none;stroke:#000000;stroke-width:0.2;stroke-linecap:butt;stroke-linejoin:miter;stroke-miterlimit:4;stroke-opacity:1;stroke-dasharray:none;display:inline"
       d="M 0,0 47.409,7.509"
       id="path3158-8"
       inkscape:connector-curvature="0"
       sodipodi:nodetypes="cc" />
    <path
       style="fill:none;stroke:#000000;stroke-width:0.2;stroke-linecap:butt;stroke-linejoin:miter;stroke-miterlimit:4;stroke-opacity:1;stroke-dasharray:none;display:inline"
       d="M 0,0 33.941,33.941"
       id="path3158-82"
       inkscape:connector-curvature="0"
       sodipodi:nodetypes="cc" />
    <path
       style="fill:none;stroke:#000000;stroke-width:0.2;stroke-linecap:butt;stroke-linejoin:miter;stroke-miterlimit:4;stroke-opacity:1;stroke-dasharray:none;display:inline"
       d="M 0,0 26.143,40.256"
       id="path3158-4"
       inkscape:connector-curvature="0"
       sodipodi:nodetypes="cc" />
    <path
       style="fill:none;stroke:#000000;stroke-width:0.2;stroke-linecap:butt;stroke-linejoin:miter;stroke-miterlimit:4;stroke-opacity:1;stroke-dasharray:none;display:inline"
       d="M 0,0 21.792,42.768"
       id="path3158-5"
       inkscape:connector-curvature="0"
       sodipodi:nodetypes="cc" />
    <path
       style="fill:none;stroke:#000000;stroke-width:0.2;stroke-linecap:butt;stroke-linejoin:miter;stroke-miterlimit:4;stroke-opacity:1;stroke-dasharray:none;display:inline"
       d="M 0,0 37.303,30.207"
       id="path3158-51"
       inkscape:connector-curvature="0"
       sodipodi:nodetypes="cc" />
    <path
       style="fill:none;stroke:#000000;stroke-width:0.2;stroke-linecap:butt;stroke-linejoin:miter;stroke-miterlimit:4;stroke-opacity:1;stroke-dasharray:none;display:inline"
       d="M 0,0 42.768,21.792"
       id="path3158-7"
       inkscape:connector-curvature="0"
       sodipodi:nodetypes="cc" />
    <path
       style="fill:none;stroke:#000000;stroke-width:0.2;stroke-linecap:butt;stroke-linejoin:miter;stroke-miterlimit:4;stroke-opacity:1;stroke-dasharray:none;display:inline"
       d="M 0,0 44.812,17.202"
       id="path3158-1"
       inkscape:connector-curvature="0"
       sodipodi:nodetypes="cc" />
    <path
       style="fill:none;stroke:#000000;stroke-width:0.2;stroke-linecap:butt;stroke-linejoin:miter;stroke-miterlimit:4;stroke-opacity:1;stroke-dasharray:none;display:inline"
       d="M 0,0 46.364,12.423"
       id="path3158-15"
       inkscape:connector-curvature="0"
       sodipodi:nodetypes="cc" />
    <path
       style="fill:none;stroke:#000000;stroke-width:0.2;stroke-linecap:butt;stroke-linejoin:miter;stroke-miterlimit:4;stroke-opacity:1;stroke-dasharray:none;display:inline"
       d="M 0,0 30.207,37.303"
       id="path3158-2"
       inkscape:connector-curvature="0"
       sodipodi:nodetypes="cc" />
    <path
       style="fill:none;stroke:#000000;stroke-width:0.2;stroke-linecap:butt;stroke-linejoin:miter;stroke-miterlimit:4;stroke-opacity:1;stroke-dasharray:none;display:inline"
       d="M 0,0 12.423,46.364"
       id="path3158-76"
       inkscape:connector-curvature="0"
       sodipodi:nodetypes="cc" />
    <path
       style="fill:none;stroke:#000000;stroke-width:0.2;stroke-linecap:butt;stroke-linejoin:miter;stroke-miterlimit:4;stroke-opacity:1;stroke-dasharray:none;display:inline"
       d="M 0,0 40.256,26.143"
       id="path3158-14"
       inkscape:connector-curvature="0"
       sodipodi:nodetypes="cc" />
    <path
       style="fill:none;stroke:#000000;stroke-width:0.2;stroke-linecap:butt;stroke-linejoin:miter;stroke-miterlimit:4;stroke-opacity:1;stroke-dasharray:none;display:inline"
       d="M 0,0 2.512,47.934"
       id="path3158-23"
       inkscape:connector-curvature="0"
       sodipodi:nodetypes="cc" />
    <path
       style="fill:none;stroke:#000000;stroke-width:0.2;stroke-linecap:butt;stroke-linejoin:miter;stroke-miterlimit:4;stroke-opacity:1;stroke-dasharray:none;display:inline"
       d="M 17.202,44.812 0,0"
       id="path3158-23-2"
       inkscape:connector-curvature="0"
       sodipodi:nodetypes="cc" />
    <path
       style="fill:none;stroke:#000000;stroke-width:0.2;stroke-linecap:butt;stroke-linejoin:miter;stroke-miterlimit:4;stroke-opacity:1;stroke-dasharray:none;display:inline"
       d="M 0,0 7.509,47.409"
       id="path3158-23-21"
       inkscape:connector-curvature="0"
       sodipodi:nodetypes="cc" />
    <path
       inkscape:connector-curvature="0"
       style="fill:none;stroke:#000000;stroke-width:0.2;stroke-miterlimit:4;stroke-opacity:1;stroke-dasharray:none;display:inline"
       d="M 0,40 C 22.09138,40 40,22.09138 40,2.0025031e-7"
       id="path3992-2-8"
       sodipodi:nodetypes="cc" />
  </g>
</svg>
