<?xml version="1.0" encoding="UTF-8" standalone="no"?>
<!-- Created with Inkscape (http://www.inkscape.org/) -->

<svg
   xmlns:dc="http://purl.org/dc/elements/1.1/"
   xmlns:cc="http://creativecommons.org/ns#"
   xmlns:rdf="http://www.w3.org/1999/02/22-rdf-syntax-ns#"
   xmlns:svg="http://www.w3.org/2000/svg"
   xmlns="http://www.w3.org/2000/svg"
   xmlns:sodipodi="http://sodipodi.sourceforge.net/DTD/sodipodi-0.dtd"
   xmlns:inkscape="http://www.inkscape.org/namespaces/inkscape"
   width="16"
   height="32"
   id="svg3033"
   version="1.1"
   inkscape:version="0.48.4 r9939"
   sodipodi:docname="rail135.svg">
  <defs
     id="defs3035" />
  <sodipodi:namedview
     id="base"
     pagecolor="#ffffff"
     bordercolor="#666666"
     borderopacity="1.0"
     inkscape:pageopacity="0.0"
     inkscape:pageshadow="2"
     inkscape:zoom="20.566736"
     inkscape:cx="14.783096"
     inkscape:cy="18.750965"
     inkscape:current-layer="layer8"
     showgrid="true"
     inkscape:grid-bbox="true"
     inkscape:document-units="px"
     inkscape:window-width="1440"
     inkscape:window-height="838"
     inkscape:window-x="1432"
     inkscape:window-y="-8"
     inkscape:window-maximized="1"
     inkscape:snap-global="false">
    <inkscape:grid
       type="xygrid"
       id="grid3919"
       empspacing="16"
       visible="true"
       enabled="true"
       snapvisiblegridlinesonly="true" />
  </sodipodi:namedview>
  <metadata
     id="metadata3038">
    <rdf:RDF>
      <cc:Work
         rdf:about="">
        <dc:format>image/svg+xml</dc:format>
        <dc:type
           rdf:resource="http://purl.org/dc/dcmitype/StillImage" />
        <dc:title></dc:title>
      </cc:Work>
    </rdf:RDF>
  </metadata>
  <g
     inkscape:groupmode="layer"
     id="layer8"
     inkscape:label="Straight"
     transform="translate(0,-64)"
     style="display:inline">
    <rect
       style="fill:#000000;fill-opacity:1;stroke:none;display:inline"
       id="rect3041-9-3"
       width="2"
       height="10"
       x="-76.485825"
       y="46.492687"
       transform="matrix(-0.70710678,-0.70710678,-0.70710678,0.70710678,0,0)" />
    <rect
       style="fill:#997f4c;fill-opacity:1;stroke:none;display:inline"
       id="rect3041-9"
       width="2"
       height="10"
       x="-76.485603"
       y="45.785187"
       transform="matrix(-0.70710678,-0.70710678,-0.70710678,0.70710678,0,0)" />
    <rect
       style="fill:#000000;fill-opacity:1;stroke:none;display:inline"
       id="rect3041-8-33"
       width="2"
       height="10"
       x="-72.71553"
       y="46.492691"
       transform="matrix(-0.70710678,-0.70710678,-0.70710678,0.70710678,0,0)" />
    <rect
       style="fill:#997f4c;fill-opacity:1;stroke:none;display:inline"
       id="rect3041-8"
       width="2"
       height="10"
       x="-72.715309"
       y="45.785191"
       transform="matrix(-0.70710678,-0.70710678,-0.70710678,0.70710678,0,0)" />
    <rect
       style="fill:#000000;fill-opacity:1;stroke:none;display:inline"
       id="rect3041-2-7"
       width="2"
       height="10"
       x="-68.943825"
       y="46.492687"
       transform="matrix(-0.70710678,-0.70710678,-0.70710678,0.70710678,0,0)" />
    <rect
       style="fill:#997f4c;fill-opacity:1;stroke:none;display:inline"
       id="rect3041-2"
       width="2"
       height="10"
       x="-68.943604"
       y="45.785187"
       transform="matrix(-0.70710678,-0.70710678,-0.70710678,0.70710678,0,0)" />
    <rect
       style="fill:#000000;fill-opacity:1;stroke:none;display:inline"
       id="rect3041-4"
       width="2"
       height="10"
       x="-80.25753"
       y="46.492691"
       transform="matrix(-0.70710678,-0.70710678,-0.70710678,0.70710678,0,0)" />
    <rect
       style="fill:#997f4c;fill-opacity:1;stroke:none;display:inline"
       id="rect3041"
       width="2"
       height="10"
       x="-80.257309"
       y="45.785191"
       transform="matrix(-0.70710678,-0.70710678,-0.70710678,0.70710678,0,0)" />
    <rect
       style="fill:#000000;fill-opacity:1;stroke:none;display:inline"
       id="rect3041-9-6-3"
       width="2"
       height="10"
       x="-61.40181"
       y="46.492687"
       transform="matrix(-0.70710678,-0.70710678,-0.70710678,0.70710678,0,0)" />
    <rect
       style="fill:#997f4c;fill-opacity:1;stroke:none;display:inline"
       id="rect3041-9-6"
       width="2"
       height="10"
       x="-61.4016"
       y="45.785187"
       transform="matrix(-0.70710678,-0.70710678,-0.70710678,0.70710678,0,0)" />
    <rect
       style="fill:#000000;fill-opacity:1;stroke:none;display:inline"
       id="rect3041-92-8"
       width="2"
       height="10"
       x="-65.172119"
       y="46.492687"
       transform="matrix(-0.70710678,-0.70710678,-0.70710678,0.70710678,0,0)" />
    <rect
       style="fill:#997f4c;fill-opacity:1;stroke:none;display:inline"
       id="rect3041-92"
       width="2"
       height="10"
       x="-65.171898"
       y="45.785187"
       transform="matrix(-0.70710678,-0.70710678,-0.70710678,0.70710678,0,0)" />
    <rect
       style="fill:#000000;fill-opacity:1;stroke:none;display:inline"
       id="rect3041-9-3-1"
       width="2.0000069"
       height="10.000034"
       x="-53.858551"
       y="46.492878"
       transform="matrix(-0.70710922,-0.70710434,-0.70710922,0.70710434,0,0)" />
    <rect
       style="fill:#997f4c;fill-opacity:1;stroke:none;display:inline"
       id="rect3041-9-9"
       width="2.0000069"
       height="10.000034"
       x="-53.858337"
       y="45.785378"
       transform="matrix(-0.70710922,-0.70710434,-0.70710922,0.70710434,0,0)" />
    <rect
       style="fill:#000000;fill-opacity:1;stroke:none;display:inline"
       id="rect3041-8-33-8"
       width="2.0000069"
       height="10.000034"
       x="-50.088261"
       y="46.492863"
       transform="matrix(-0.70710922,-0.70710434,-0.70710922,0.70710434,0,0)" />
    <rect
       style="fill:#997f4c;fill-opacity:1;stroke:none;display:inline"
       id="rect3041-8-9"
       width="2.0000069"
       height="10.000034"
       x="-50.088043"
       y="45.785362"
       transform="matrix(-0.70710922,-0.70710434,-0.70710922,0.70710434,0,0)" />
    <rect
       style="fill:#000000;fill-opacity:1;stroke:none;display:inline"
       id="rect3041-2-7-7"
       width="2.0000069"
       height="10.000034"
       x="-46.316555"
       y="46.492847"
       transform="matrix(-0.70710922,-0.70710434,-0.70710922,0.70710434,0,0)" />
    <rect
       style="fill:#997f4c;fill-opacity:1;stroke:none;display:inline"
       id="rect3041-2-2"
       width="2.0000069"
       height="10.000034"
       x="-46.316338"
       y="45.785351"
       transform="matrix(-0.70710922,-0.70710434,-0.70710922,0.70710434,0,0)" />
    <rect
       style="fill:#000000;fill-opacity:1;stroke:none;display:inline"
       id="rect3041-4-2"
       width="2.0000069"
       height="10.000034"
       x="-57.63026"
       y="46.492889"
       transform="matrix(-0.70710922,-0.70710434,-0.70710922,0.70710434,0,0)" />
    <rect
       style="fill:#997f4c;fill-opacity:1;stroke:none;display:inline"
       id="rect3041-82"
       width="2.0000069"
       height="10.000034"
       x="-57.630047"
       y="45.785389"
       transform="matrix(-0.70710922,-0.70710434,-0.70710922,0.70710434,0,0)" />
    <path
       style="fill:#7f7f7f;fill-opacity:1;stroke:none;display:inline"
       d="m -7.168498,67.46875 27.3125,27.3125 -0.71875,0.71875 -27.3125,-27.3125 z"
       id="rect3813"
       inkscape:connector-curvature="0"
       sodipodi:nodetypes="ccccc" />
    <path
       style="fill:#7f7f7f;fill-opacity:1;stroke:none;display:inline"
       d="m -3.637248,63.9375 27.3125,27.3125 -0.71875,0.71875 c 0,0 -10.64882,-10.684494 -16,-16 C 3.052241,72.009375 -4.355998,64.625 -4.355998,64.625 z"
       id="rect3813-1"
       inkscape:connector-curvature="0"
       sodipodi:nodetypes="cccccc" />
  </g>
</svg>
