<?xml version="1.0" encoding="UTF-8" standalone="no"?>
<!-- Created with Inkscape (http://www.inkscape.org/) -->

<svg
   xmlns:dc="http://purl.org/dc/elements/1.1/"
   xmlns:cc="http://creativecommons.org/ns#"
   xmlns:rdf="http://www.w3.org/1999/02/22-rdf-syntax-ns#"
   xmlns:svg="http://www.w3.org/2000/svg"
   xmlns="http://www.w3.org/2000/svg"
   xmlns:sodipodi="http://sodipodi.sourceforge.net/DTD/sodipodi-0.dtd"
   xmlns:inkscape="http://www.inkscape.org/namespaces/inkscape"
   width="96"
   height="96"
   id="svg3033"
   version="1.1"
   inkscape:version="0.48.4 r9939"
   sodipodi:docname="scurve.svg">
  <defs
     id="defs3035" />
  <sodipodi:namedview
     id="base"
     pagecolor="#ffffff"
     bordercolor="#666666"
     borderopacity="1.0"
     inkscape:pageopacity="0.0"
     inkscape:pageshadow="2"
     inkscape:zoom="4"
     inkscape:cx="52.845361"
     inkscape:cy="45.587486"
     inkscape:current-layer="layer7"
     showgrid="true"
     inkscape:grid-bbox="true"
     inkscape:document-units="px"
     inkscape:window-width="668"
     inkscape:window-height="652"
     inkscape:window-x="2046"
     inkscape:window-y="67"
     inkscape:window-maximized="0"
     inkscape:snap-global="false">
    <inkscape:grid
       type="xygrid"
       id="grid3919"
       empspacing="16"
       visible="true"
       enabled="true"
       snapvisiblegridlinesonly="true" />
  </sodipodi:namedview>
  <metadata
     id="metadata3038">
    <rdf:RDF>
      <cc:Work
         rdf:about="">
        <dc:format>image/svg+xml</dc:format>
        <dc:type
           rdf:resource="http://purl.org/dc/dcmitype/StillImage" />
        <dc:title></dc:title>
      </cc:Work>
    </rdf:RDF>
  </metadata>
  <g
     inkscape:groupmode="layer"
     id="layer3"
     inkscape:label="Shadow"
     style="display:inline"
     transform="translate(0,80)">
    <path
       id="path3992-2-5-1-5"
       style="opacity:0.3495575;fill:#000000;fill-opacity:1;stroke:none;display:inline"
       d="m 96.000001,-4.0000005 0,-2.0000005 c -8.085084,0 -15.675971,2.7954353 -21.981972,7.3048515 C 66.807981,6.8924066 57.795608,10.299194 48,10.299194 L 48,12 c 9.618232,-0.0098 19.160891,-3.4481525 26.940109,-9.3820902 5.801767,-4.1497433 12.95357,-6.6521444 21.059892,-6.6179103 z"
       inkscape:connector-curvature="0"
       sodipodi:nodetypes="ccccccc" />
    <path
       id="path4043-7-1-9"
       style="opacity:0.3495575;fill:#000000;fill-opacity:1;stroke:none;display:inline"
       d="M 48,5.331 48,7 c 8.772145,0 17.089279,-3.1312371 23.908306,-8.2983843 6.927546,-4.8421542 15.235966,-7.7016161 24.091695,-7.7016161 l 0,-1.9999996 C 86.939366,-11.0259 78.357104,-7.7401742 71.076825,-2.5645438 64.58074,2.3132765 56.63588,5.331 48,5.331 z"
       inkscape:connector-curvature="0"
       sodipodi:nodetypes="ccccccc" />
    <path
       id="path4043-7-1"
       style="opacity:0.3495575;fill:#000000;fill-opacity:1;stroke:none;display:inline"
       d="M 86.999998,-32 85,-32 C 85,-40.202908 82.551913,-47.459577 77.708551,-54.521217 72.045794,-63.034414 69.033916,-71.552622 69,-80.000145 l 2,0 c 0,9.027577 2.466064,17.153003 7.581705,24.93011 5.583927,7.417614 8.453955,15.043473 8.418293,23.070035 z"
       inkscape:connector-curvature="0"
       sodipodi:nodetypes="ccccccc" />
    <path
       id="path3992-2-5-1"
       style="opacity:0.3495575;fill:#000000;fill-opacity:1;stroke:none;display:inline"
       d="M 91.999998,-32 90,-32 C 89.96192,-41.425091 87.160226,-49.755177 81.97487,-57.123627 76.918206,-64.338498 74.034346,-72.101053 74,-80 l 2,0 c -0.06843,8.286404 2.261717,15.714938 6.779126,22.339628 5.811624,7.637945 9.145343,16.247108 9.220872,25.660372 z"
       inkscape:connector-curvature="0"
       sodipodi:nodetypes="ccccccc" />
  </g>
  <g
     inkscape:groupmode="layer"
     id="layer7"
     inkscape:label="TieBlack"
     style="display:inline"
     transform="translate(0,48)">
    <rect
       style="fill:#000000;fill-opacity:1;stroke:none;display:inline"
       id="rect3041-7-3-7"
       width="2.0000038"
       height="10"
       x="46.262512"
       y="38.104893"
       transform="matrix(0.99847435,-0.05521754,0.05521776,0.99847434,0,0)" />
    <rect
       style="fill:#000000;fill-opacity:1;stroke:none;display:inline"
       id="rect3041-9-1-2-6"
       width="2.0000031"
       height="10.000004"
       x="41.778236"
       y="56.627571"
       transform="matrix(0.89496161,-0.44614316,0.44614457,0.89496091,0,0)" />
    <rect
       style="fill:#000000;fill-opacity:1;stroke:none;display:inline"
       id="rect3041-8-1-33-1"
       width="2.0000029"
       height="10.000006"
       x="39.12973"
       y="61.086758"
       transform="matrix(0.84100499,-0.54102737,0.54102887,0.84100402,0,0)" />
    <rect
       style="fill:#000000;fill-opacity:1;stroke:none;display:inline"
       id="rect3041-7-4-8"
       width="2.0000033"
       height="10.000003"
       x="43.296211"
       y="52.367332"
       transform="matrix(0.93436312,-0.35632228,0.3563235,0.93436265,0,0)" />
    <rect
       style="fill:#000000;fill-opacity:1;stroke:none;display:inline"
       id="rect3041-9-1-1-9"
       width="2.0000038"
       height="10"
       x="46.05167"
       y="42.712036"
       transform="matrix(0.9884497,-0.15154928,0.15154986,0.98844961,0,0)" />
    <rect
       style="fill:#000000;fill-opacity:1;stroke:none;display:inline"
       id="rect3041-8-1-1-2"
       width="2.0000036"
       height="10.000001"
       x="44.657288"
       y="47.809887"
       transform="matrix(0.96554057,-0.26025259,0.26025355,0.96554031,0,0)" />
    <rect
       style="fill:#000000;fill-opacity:1;stroke:none;display:inline"
       id="rect3041-9-1-1-1-7-1"
       width="2"
       height="10"
       x="-8.0955534"
       y="81.881447"
       transform="matrix(-0.14779813,-0.98901755,0.98901755,-0.14779813,0,0)" />
    <rect
       style="fill:#000000;fill-opacity:1;stroke:none;display:inline"
       id="rect3041-8-1-1-7-7-4"
       width="2"
       height="10"
       x="-13.534622"
       y="80.755875"
       transform="matrix(-0.25684939,-0.96645144,0.96645144,-0.25684939,0,0)" />
    <rect
       style="fill:#000000;fill-opacity:1;stroke:none;display:inline"
       id="rect3041-7-3-4-3-3"
       width="2"
       height="10"
       x="-4.1976509"
       y="82.382599"
       transform="matrix(-0.05535411,-0.99846679,0.99846679,-0.05535411,0,0)" />
    <rect
       style="fill:#000000;fill-opacity:1;stroke:none;display:inline"
       id="rect3041-8-1-1-7-0-35-9"
       width="2"
       height="10"
       x="-17.90864"
       y="79.29789"
       transform="matrix(-0.35258188,-0.93578097,0.93578097,-0.35258188,0,0)" />
    <rect
       style="fill:#000000;fill-opacity:1;stroke:none;display:inline"
       id="rect3041-8-1-1-7-9-9-8"
       width="2"
       height="10"
       x="-22.451622"
       y="77.204712"
       transform="matrix(-0.45015789,-0.89294897,0.89294897,-0.45015789,0,0)" />
    <rect
       style="fill:#000000;fill-opacity:1;stroke:none;display:inline"
       id="rect3041-8-1-1-7-4-9-8"
       width="1.9999971"
       height="9.9999666"
       x="-27.192663"
       y="74.586525"
       transform="matrix(-0.54661847,-0.83738178,0.83737943,-0.54662207,0,0)" />
    <rect
       style="fill:#000000;fill-opacity:1;stroke:none;display:inline"
       id="rect3041-9-1-2-2-2-7"
       width="1.9999887"
       height="9.9999857"
       x="-57.222767"
       y="-65.295967"
       transform="matrix(-0.89495999,0.4461464,-0.44614134,-0.89496252,0,0)" />
    <rect
       style="fill:#000000;fill-opacity:1;stroke:none;display:inline"
       id="rect3041-8-1-33-8-66-8"
       width="1.99999"
       height="9.999979"
       x="-45.993126"
       y="-70.90036"
       transform="matrix(-0.84100276,0.54103083,-0.54102541,-0.84100624,0,0)" />
    <rect
       style="fill:#000000;fill-opacity:1;stroke:none;display:inline"
       id="rect3041-7-4-6-03-3"
       width="1.9999876"
       height="9.9999914"
       x="-67.172264"
       y="-59.271202"
       transform="matrix(-0.93436204,0.35632509,-0.35632069,-0.93436372,0,0)" />
    <rect
       style="fill:#000000;fill-opacity:1;stroke:none;display:inline"
       id="rect3041-9-1-1-0-8-8"
       width="1.9999862"
       height="9.9999981"
       x="-85.450607"
       y="-43.157337"
       transform="matrix(-0.9884495,0.15155062,-0.15154852,-0.98844982,0,0)" />
    <rect
       style="fill:#000000;fill-opacity:1;stroke:none;display:inline"
       id="rect3041-8-1-1-24-0-3"
       width="1.9999868"
       height="9.9999952"
       x="-76.50898"
       y="-52.115868"
       transform="matrix(-0.96553998,0.26025479,-0.26025135,-0.9655409,0,0)" />
    <rect
       style="fill:#000000;fill-opacity:1;stroke:none;display:inline"
       id="rect3041-7-3-8-12-7"
       width="1.9999859"
       height="10"
       x="-92.92981"
       y="-34.640366"
       transform="matrix(-0.99847432,0.05521804,-0.05521726,-0.99847436,0,0)" />
    <path
       id="path3992-2-5-9"
       style="opacity:0.3495575;fill:#000000;fill-opacity:1;stroke:none;display:inline"
       d="m 0,27.999001 0,-2 c 8.2493139,0 16.150794,2.832698 22.982251,7.776296 C 30.105417,39.091945 38.611032,41.999001 48,41.999001 l 0,2 C 38.762622,44.025401 30.022461,40.448383 22.400381,34.632896 15.82212,30.318384 8.251712,27.960103 0,27.999001 z"
       inkscape:connector-curvature="0"
       sodipodi:nodetypes="ccccccc" />
    <path
       id="path4043-7-13"
       style="opacity:0.3495575;fill:#000000;fill-opacity:1;stroke:none;display:inline"
       d="m 48,36.999001 0,2 c -7.788517,0 -15.350928,-2.986649 -21.802672,-7.801331 C 18.971702,25.983494 9.984425,22.999001 0,22.999001 l 0,-2 c 9.560831,0.0098 19.01092,3.510325 26.783086,9.440935 5.985187,4.213511 13.25536,6.593652 21.216914,6.559065 z"
       inkscape:connector-curvature="0"
       sodipodi:nodetypes="ccccccc" />
    <path
       id="path3992-2-5"
       style="opacity:0.3495575;fill:#000000;fill-opacity:1;stroke:none;display:inline"
       d="m 4.999997,0 1.9999999,0 c 0,-9.533893 3.2284071,-18.210696 8.5198811,-25.168807 C 20.190973,-31.665079 23.035694,-39.542414 23,-47.999999 l -2,0 c 0,8.033891 -2.560507,15.520906 -6.679066,21.882314 C 8.648274,-18.413243 5.0371529,-9.254331 4.999997,0 z"
       inkscape:connector-curvature="0"
       sodipodi:nodetypes="ccccccc" />
    <path
       id="path4043-7"
       style="opacity:0.3495575;fill:#000000;fill-opacity:1;stroke:none;display:inline"
       d="m 9.999997,0 2,0 c 0.206579,-7.898368 2.776327,-15.385614 7.102862,-21.521472 C 24.562598,-28.76463 28.000346,-37.799105 28,-47.999999 l -2,0 c 0,9.415728 -3.098377,18.15709 -8.200209,25.324767 C 13.008358,-16.121814 10.035738,-8.219768 9.9999969,0 z"
       inkscape:connector-curvature="0"
       sodipodi:nodetypes="ccccccc" />
    <rect
       style="fill:#000000;fill-opacity:1;stroke:none;display:inline"
       id="rect3041-9-1-2-2-4"
       width="1.9999887"
       height="9.9999857"
       x="-43.175117"
       y="14.296903"
       transform="matrix(-0.89495999,-0.4461464,-0.44614134,0.89496252,0,0)" />
    <rect
       style="fill:#000000;fill-opacity:1;stroke:none;display:inline"
       id="rect3041-8-1-33-8-6"
       width="1.99999"
       height="9.999979"
       x="-40.749229"
       y="9.6686211"
       transform="matrix(-0.84100276,-0.54103083,-0.54102541,0.84100624,0,0)" />
    <rect
       style="fill:#000000;fill-opacity:1;stroke:none;display:inline"
       id="rect3041-7-4-6-0"
       width="1.9999876"
       height="9.9999914"
       x="-45.464741"
       y="18.516813"
       transform="matrix(-0.93436204,-0.35632509,-0.35632069,0.93436372,0,0)" />
    <rect
       style="fill:#000000;fill-opacity:1;stroke:none;display:inline"
       id="rect3041-9-1-1-0-6"
       width="1.9999862"
       height="9.9999981"
       x="-47.84753"
       y="28.314318"
       transform="matrix(-0.9884495,-0.15155062,-0.15154852,0.98844982,0,0)" />
    <rect
       style="fill:#000000;fill-opacity:1;stroke:none;display:inline"
       id="rect3041-8-1-1-24-6"
       width="1.9999868"
       height="9.9999952"
       x="-47.065502"
       y="23.085678"
       transform="matrix(-0.96553998,-0.26025479,-0.26025135,0.9655409,0,0)" />
    <rect
       style="fill:#000000;fill-opacity:1;stroke:none;display:inline"
       id="rect3041-7-3-8-1"
       width="1.9999858"
       height="10"
       x="-48.589092"
       y="32.858391"
       transform="matrix(-0.99847432,-0.05521804,-0.05521726,0.99847436,0,0)" />
    <rect
       style="fill:#000000;fill-opacity:1;stroke:none;display:inline"
       id="rect3041-9-1-1-1-6-5-1"
       width="1.9999996"
       height="9.9999304"
       x="5.944881"
       y="-12.072483"
       transform="matrix(0.14779711,-0.9890177,-0.9890174,-0.14779915,0,0)" />
    <rect
       style="fill:#000000;fill-opacity:1;stroke:none;display:inline"
       id="rect3041-8-1-1-7-50-0-0"
       width="1.999999"
       height="9.9999342"
       x="10.86538"
       y="-11.054368"
       transform="matrix(0.25684769,-0.96645189,-0.96645099,-0.25685109,0,0)" />
    <rect
       style="fill:#000000;fill-opacity:1;stroke:none;display:inline"
       id="rect3041-7-3-4-9-94-7"
       width="2"
       height="9.9999294"
       x="1.0608422"
       y="-12.468996"
       transform="matrix(0.05535372,-0.99846681,-0.99846676,-0.0553545,0,0)" />
    <rect
       style="fill:#000000;fill-opacity:1;stroke:none;display:inline"
       id="rect3041-8-1-1-7-0-0-7-3"
       width="1.9999982"
       height="9.999938"
       x="15.585693"
       y="-9.5987415"
       transform="matrix(0.35257969,-0.93578179,-0.93578014,-0.35258406,0,0)" />
    <rect
       style="fill:#000000;fill-opacity:1;stroke:none;display:inline"
       id="rect3041-8-1-1-7-9-0-8-4"
       width="1.9999971"
       height="9.9999437"
       x="20.344633"
       y="-7.5794291"
       transform="matrix(0.45015535,-0.89295026,-0.89294769,-0.45016043,0,0)" />
    <rect
       style="fill:#000000;fill-opacity:1;stroke:none;display:inline"
       id="rect3041-8-1-1-7-4-6-3-9"
       width="1.9999957"
       height="9.9999504"
       x="24.734787"
       y="-4.9622431"
       transform="matrix(0.54661756,-0.83738238,-0.83737883,-0.54662299,0,0)" />
    <rect
       style="fill:#000000;fill-opacity:1;stroke:none;display:inline"
       id="rect3041-9-1-2-4-6"
       width="2.0000036"
       height="10.000005"
       x="27.752911"
       y="-22.875416"
       transform="matrix(0.89496165,0.44614307,0.44614467,-0.89496086,0,0)" />
    <rect
       style="fill:#000000;fill-opacity:1;stroke:none;display:inline"
       id="rect3041-8-1-33-6-1"
       width="2.0000031"
       height="10.000007"
       x="33.983063"
       y="-19.442175"
       transform="matrix(0.84100505,0.54102727,0.54102898,-0.84100395,0,0)" />
    <rect
       style="fill:#000000;fill-opacity:1;stroke:none;display:inline"
       id="rect3041-7-4-0-8"
       width="2.0000038"
       height="10.000003"
       x="21.58909"
       y="-25.420555"
       transform="matrix(0.93436315,0.3563222,0.35632359,-0.93436262,0,0)" />
    <rect
       style="fill:#000000;fill-opacity:1;stroke:none;display:inline"
       id="rect3041-9-1-1-7-9"
       width="2.0000043"
       height="10.000001"
       x="8.4488544"
       y="-28.759525"
       transform="matrix(0.98844971,0.15154924,0.1515499,-0.98844961,0,0)" />
    <rect
       style="fill:#000000;fill-opacity:1;stroke:none;display:inline"
       id="rect3041-8-1-1-1-8"
       width="2.0000041"
       height="10.000002"
       x="15.214149"
       y="-27.391541"
       transform="matrix(0.96554059,0.26025253,0.26025361,-0.96554029,0,0)" />
    <rect
       style="fill:#000000;fill-opacity:1;stroke:none;display:inline"
       id="rect3041-7-3-77-4"
       width="2.0000045"
       height="10"
       x="1.9219935"
       y="-29.393818"
       transform="matrix(0.99847435,0.05521753,0.05521777,-0.99847434,0,0)" />
    <rect
       style="fill:#997f4c;fill-opacity:1;stroke:none;display:inline"
       id="rect3041-9-1-2-4"
       width="2.0000036"
       height="10.000005"
       x="27.977276"
       y="-22.204777"
       transform="matrix(0.89496165,0.44614307,0.44614467,-0.89496086,0,0)" />
    <rect
       style="fill:#997f4c;fill-opacity:1;stroke:none;display:inline"
       id="rect3041-8-1-33-6"
       width="2.0000031"
       height="10.000007"
       x="34.132999"
       y="-18.751078"
       transform="matrix(0.84100505,0.54102727,0.54102898,-0.84100395,0,0)" />
    <rect
       style="fill:#997f4c;fill-opacity:1;stroke:none;display:inline"
       id="rect3041-7-4-0"
       width="2.0000038"
       height="10.000003"
       x="21.878077"
       y="-24.775124"
       transform="matrix(0.93436315,0.3563222,0.35632359,-0.93436262,0,0)" />
    <rect
       style="fill:#997f4c;fill-opacity:1;stroke:none;display:inline"
       id="rect3041-9-1-1-7"
       width="2.0000043"
       height="10.000001"
       x="8.8672943"
       y="-28.189434"
       transform="matrix(0.98844971,0.15154924,0.1515499,-0.98844961,0,0)" />
    <rect
       style="fill:#997f4c;fill-opacity:1;stroke:none;display:inline"
       id="rect3041-8-1-1-1"
       width="2.0000041"
       height="10.000002"
       x="15.566765"
       y="-26.778557"
       transform="matrix(0.96554059,0.26025253,0.26025361,-0.96554029,0,0)" />
    <rect
       style="fill:#997f4c;fill-opacity:1;stroke:none;display:inline"
       id="rect3041-7-3-77"
       width="2.0000045"
       height="10"
       x="2.3936136"
       y="-28.866879"
       transform="matrix(0.99847435,0.05521753,0.05521777,-0.99847434,0,0)" />
    <rect
       style="fill:#000000;fill-opacity:1;stroke:none;display:inline"
       id="rect3041-9-1-1-1-9"
       width="2"
       height="10.000019"
       x="-45.171467"
       y="11.629815"
       transform="matrix(-0.14779841,0.98901751,0.98901759,0.14779785,0,0)" />
    <rect
       style="fill:#000000;fill-opacity:1;stroke:none;display:inline"
       id="rect3041-8-1-1-7-5"
       width="2.0000002"
       height="10.000018"
       x="-42.569439"
       y="6.8174047"
       transform="matrix(-0.25684986,0.96645132,0.96645157,0.25684892,0,0)" />
    <rect
       style="fill:#000000;fill-opacity:1;stroke:none;display:inline"
       id="rect3041-7-3-4-4"
       width="2"
       height="10.00002"
       x="-47.634617"
       y="15.875869"
       transform="matrix(-0.05535422,0.99846678,0.99846679,0.055354,0,0)" />
    <rect
       style="fill:#000000;fill-opacity:1;stroke:none;display:inline"
       id="rect3041-8-1-1-7-0-3"
       width="2.0000005"
       height="10.000017"
       x="-39.373425"
       y="2.8179495"
       transform="matrix(-0.35258249,0.93578074,0.9357812,0.35258127,0,0)" />
    <rect
       style="fill:#000000;fill-opacity:1;stroke:none;display:inline"
       id="rect3041-8-1-1-7-9-1"
       width="2.0000007"
       height="10.000015"
       x="-35.7215"
       y="-1.103577"
       transform="matrix(-0.4501586,0.89294862,0.89294933,0.45015719,0,0)" />
    <rect
       style="fill:#000000;fill-opacity:1;stroke:none;display:inline"
       id="rect3041-8-1-1-7-4-2"
       width="2.0000012"
       height="10.000013"
       x="-31.511515"
       y="-4.719758"
       transform="matrix(-0.54662103,0.83738011,0.8373811,0.54661952,0,0)" />
    <rect
       style="fill:#997f4c;fill-opacity:1;stroke:none;display:inline"
       id="rect3041-9-1-1-1"
       width="2"
       height="10"
       x="-45.73954"
       y="12.050832"
       transform="matrix(-0.14779813,0.98901755,0.98901755,0.14779813,0,0)" />
    <rect
       style="fill:#997f4c;fill-opacity:1;stroke:none;display:inline"
       id="rect3041-8-1-1-7"
       width="2"
       height="10"
       x="-43.180794"
       y="7.1726503"
       transform="matrix(-0.25684939,0.96645144,0.96645144,0.25684939,0,0)" />
    <rect
       style="fill:#997f4c;fill-opacity:1;stroke:none;display:inline"
       id="rect3041-7-3-4"
       width="2"
       height="10"
       x="-48.161156"
       y="16.347788"
       transform="matrix(-0.05535411,0.99846679,0.99846679,0.05535411,0,0)" />
    <rect
       style="fill:#997f4c;fill-opacity:1;stroke:none;display:inline"
       id="rect3041-8-1-1-7-0"
       width="2"
       height="10"
       x="-40.017361"
       y="3.1100342"
       transform="matrix(-0.35258188,0.93578097,0.93578097,0.35258188,0,0)" />
    <rect
       style="fill:#997f4c;fill-opacity:1;stroke:none;display:inline"
       id="rect3041-8-1-1-7-9"
       width="2"
       height="10"
       x="-36.392853"
       y="-0.88166672"
       transform="matrix(-0.45015789,0.89294897,0.89294897,0.45015789,0,0)" />
    <rect
       style="fill:#997f4c;fill-opacity:1;stroke:none;display:inline"
       id="rect3041-8-1-1-7-4"
       width="2"
       height="10"
       x="-32.203369"
       y="-4.5738444"
       transform="matrix(-0.54662027,0.8373806,0.8373806,0.54662027,0,0)" />
    <rect
       style="fill:#997f4c;fill-opacity:1;stroke:none;display:inline"
       id="rect3041-9-1-2-2"
       width="1.9999887"
       height="9.9999857"
       x="-43.399704"
       y="13.626714"
       transform="matrix(-0.89495999,-0.4461464,-0.44614134,0.89496252,0,0)" />
    <rect
       style="fill:#997f4c;fill-opacity:1;stroke:none;display:inline"
       id="rect3041-8-1-33-8"
       width="1.99999"
       height="9.999979"
       x="-40.899437"
       y="8.9779472"
       transform="matrix(-0.84100276,-0.54103083,-0.54102541,0.84100624,0,0)" />
    <rect
       style="fill:#997f4c;fill-opacity:1;stroke:none;display:inline"
       id="rect3041-7-4-6"
       width="1.9999876"
       height="9.9999914"
       x="-45.753906"
       y="17.871855"
       transform="matrix(-0.93436204,-0.35632509,-0.35632069,0.93436372,0,0)" />
    <rect
       style="fill:#997f4c;fill-opacity:1;stroke:none;display:inline"
       id="rect3041-9-1-1-0"
       width="1.9999862"
       height="9.9999981"
       x="-48.266045"
       y="27.744722"
       transform="matrix(-0.9884495,-0.15155062,-0.15154852,0.98844982,0,0)" />
    <rect
       style="fill:#997f4c;fill-opacity:1;stroke:none;display:inline"
       id="rect3041-8-1-1-24"
       width="1.9999868"
       height="9.9999952"
       x="-47.418255"
       y="22.473175"
       transform="matrix(-0.96553998,-0.26025479,-0.26025135,0.9655409,0,0)" />
    <rect
       style="fill:#997f4c;fill-opacity:1;stroke:none;display:inline"
       id="rect3041-7-3-8"
       width="1.9999859"
       height="10"
       x="-49.060741"
       y="32.331955"
       transform="matrix(-0.99847432,-0.05521804,-0.05521726,0.99847436,0,0)" />
    <rect
       style="fill:#997f4c;fill-opacity:1;stroke:none;display:inline"
       id="rect3041-9-1-1-1-6-5"
       width="1.9999996"
       height="9.9999304"
       x="6.5133853"
       y="-12.493076"
       transform="matrix(0.14779711,-0.9890177,-0.9890174,-0.14779915,0,0)" />
    <rect
       style="fill:#997f4c;fill-opacity:1;stroke:none;display:inline"
       id="rect3041-8-1-1-7-50-0"
       width="1.999999"
       height="9.9999342"
       x="11.477128"
       y="-11.409144"
       transform="matrix(0.25684769,-0.96645189,-0.96645099,-0.25685109,0,0)" />
    <rect
       style="fill:#997f4c;fill-opacity:1;stroke:none;display:inline"
       id="rect3041-7-3-4-9-94"
       width="2"
       height="9.9999294"
       x="1.5878464"
       y="-12.940545"
       transform="matrix(0.05535372,-0.99846681,-0.99846676,-0.0553545,0,0)" />
    <rect
       style="fill:#997f4c;fill-opacity:1;stroke:none;display:inline"
       id="rect3041-8-1-1-7-0-0-7"
       width="1.9999982"
       height="9.999938"
       x="16.229967"
       y="-9.8903084"
       transform="matrix(0.35257969,-0.93578179,-0.93578014,-0.35258406,0,0)" />
    <rect
       style="fill:#997f4c;fill-opacity:1;stroke:none;display:inline"
       id="rect3041-8-1-1-7-9-0-8"
       width="1.9999971"
       height="9.9999437"
       x="21.016275"
       y="-7.8007827"
       transform="matrix(0.45015535,-0.89295026,-0.89294769,-0.45016043,0,0)" />
    <rect
       style="fill:#997f4c;fill-opacity:1;stroke:none;display:inline"
       id="rect3041-8-1-1-7-4-6-3"
       width="1.9999957"
       height="9.9999504"
       x="25.426865"
       y="-5.1075716"
       transform="matrix(0.54661756,-0.83738238,-0.83737883,-0.54662299,0,0)" />
    <path
       id="path3992-2-1"
       style="fill:#7f7f7f;fill-opacity:1;stroke:none;display:inline"
       d="m 0,26.999001 0,-1 c 8.77852,0 16.861794,2.976698 23.354781,8.016416 6.96978,5.03811 15.461814,7.983594 24.64222,7.983594 l 0,1 c -9.450264,0 -18.188067,-3.048608 -25.313108,-8.235832 C 16.394827,29.888815 8.53489,26.999001 0,26.999001 z"
       inkscape:connector-curvature="0"
       sodipodi:nodetypes="ccccccc" />
    <path
       id="path4043-6"
       style="fill:#7f7f7f;fill-opacity:1;stroke:none;display:inline"
       d="m 47.996996,36.999013 0,1 c -8.229926,0 -15.848782,-2.616316 -22.025286,-7.018259 C 18.862612,25.372792 9.825302,21.999 0,21.999 l 0,-1 c 10.075234,0 19.341148,3.465115 26.621725,9.219075 5.996482,4.25161 13.390501,6.780938 21.375271,6.780938 z"
       inkscape:connector-curvature="0"
       sodipodi:nodetypes="ccccccc" />
    <path
       id="path3992-2"
       style="fill:#7f7f7f;fill-opacity:1;stroke:none;display:inline"
       d="m 4.999997,0 0.9999999,0 c 0,-9.719934 3.301847,-18.668685 8.8608301,-25.815292 C 19.359812,-32.081759 22,-39.732555 22,-47.999999 l -1,0 c 0,8.028383 -2.556997,15.459547 -6.927912,21.568599 C 8.3763019,-19.101908 4.999997,-9.94524 4.999997,0 z"
       inkscape:connector-curvature="0"
       sodipodi:nodetypes="ccccccc" />
    <path
       id="path4043"
       style="fill:#7f7f7f;fill-opacity:1;stroke:none;display:inline"
       d="m 27,-47.999999 -1,0 c 0,9.248055 -2.98901,17.797989 -8.223415,24.961123 C 12.830521,-16.460746 10,-8.560981 10,0 l 1,0 c 0,-8.318111 2.744904,-15.995118 7.562492,-22.419211 C 23.936712,-29.76935 27,-38.52694 27,-47.999999 z"
       inkscape:connector-curvature="0"
       sodipodi:nodetypes="ccccccc" />
  </g>
  <g
     inkscape:groupmode="layer"
     id="layer5"
     inkscape:label="NewTies"
     style="display:inline"
     transform="translate(0,48)">
    <rect
       style="fill:#997f4c;fill-opacity:1;stroke:none;display:inline"
       id="rect3041-9-1-2"
       width="2"
       height="10"
       x="42.44883"
       y="56.403194"
       transform="matrix(0.89496126,-0.44614387,0.44614387,0.89496126,0,0)" />
    <rect
       style="fill:#997f4c;fill-opacity:1;stroke:none;display:inline"
       id="rect3041-8-1-33"
       width="2"
       height="10"
       x="39.820259"
       y="60.937649"
       transform="matrix(0.8410045,-0.54102812,0.54102812,0.8410045,0,0)" />
    <rect
       style="fill:#997f4c;fill-opacity:1;stroke:none;display:inline"
       id="rect3041-7-4"
       width="2"
       height="10"
       x="43.941807"
       y="52.07885"
       transform="matrix(0.93436288,-0.35632289,0.35632289,0.93436288,0,0)" />
    <rect
       style="fill:#997f4c;fill-opacity:1;stroke:none;display:inline"
       id="rect3041-9-1-1"
       width="2"
       height="10"
       x="46.622013"
       y="42.294056"
       transform="matrix(0.98844966,-0.15154957,0.15154957,0.98844966,0,0)" />
    <rect
       style="fill:#997f4c;fill-opacity:1;stroke:none;display:inline"
       id="rect3041-8-1-1"
       width="2"
       height="10"
       x="45.270481"
       y="47.457748"
       transform="matrix(0.96554044,-0.26025307,0.26025307,0.96554044,0,0)" />
    <rect
       style="fill:#997f4c;fill-opacity:1;stroke:none;display:inline"
       id="rect3041-7-3"
       width="2"
       height="10"
       x="46.789742"
       y="37.633694"
       transform="matrix(0.99847434,-0.05521765,0.05521765,0.99847434,0,0)" />
    <rect
       style="fill:#997f4c;fill-opacity:1;stroke:none;display:inline"
       id="rect3041-9-1-1-1-7"
       width="2"
       height="10"
       x="23.973713"
       y="87.179413"
       transform="matrix(-0.14779813,-0.98901755,0.98901755,-0.14779813,0,32)" />
    <rect
       style="fill:#997f4c;fill-opacity:1;stroke:none;display:inline"
       id="rect3041-8-1-1-7-7"
       width="2"
       height="10"
       x="17.746717"
       y="89.586723"
       transform="matrix(-0.25684939,-0.96645144,0.96645144,-0.25684939,0,32)" />
    <rect
       style="fill:#997f4c;fill-opacity:1;stroke:none;display:inline"
       id="rect3041-7-3-4-3"
       width="2"
       height="10"
       x="28.224937"
       y="84.680847"
       transform="matrix(-0.05535411,-0.99846679,0.99846679,-0.05535411,0,32)" />
    <rect
       style="fill:#997f4c;fill-opacity:1;stroke:none;display:inline"
       id="rect3041-8-1-1-7-0-35"
       width="2"
       height="10"
       x="12.328041"
       y="91.224724"
       transform="matrix(-0.35258188,-0.93578097,0.93578097,-0.35258188,0,32)" />
    <rect
       style="fill:#997f4c;fill-opacity:1;stroke:none;display:inline"
       id="rect3041-8-1-1-7-9-9"
       width="2"
       height="10"
       x="-22.230143"
       y="77.876305"
       transform="matrix(-0.45015789,-0.89294897,0.89294897,-0.45015789,0,0)" />
    <rect
       style="fill:#997f4c;fill-opacity:1;stroke:none;display:inline"
       id="rect3041-8-1-1-7-4-9"
       width="1.9999971"
       height="9.9999666"
       x="-27.047201"
       y="75.27858"
       transform="matrix(-0.54661847,-0.83738178,0.83737943,-0.54662207,0,0)" />
    <rect
       style="fill:#997f4c;fill-opacity:1;stroke:none;display:inline"
       id="rect3041-9-1-2-2-2-4"
       width="1.9999887"
       height="9.9999857"
       x="-57.893318"
       y="-65.071564"
       transform="matrix(-0.89495999,0.4461464,-0.44614134,-0.89496252,0,0)" />
    <rect
       style="fill:#997f4c;fill-opacity:1;stroke:none;display:inline"
       id="rect3041-8-1-33-8-66-0"
       width="1.99999"
       height="9.999979"
       x="-46.684139"
       y="-70.750374"
       transform="matrix(-0.84100276,0.54103083,-0.54102541,-0.84100624,0,0)" />
    <rect
       style="fill:#997f4c;fill-opacity:1;stroke:none;display:inline"
       id="rect3041-7-4-6-03-9"
       width="1.9999876"
       height="9.9999914"
       x="-67.817604"
       y="-58.982166"
       transform="matrix(-0.93436204,0.35632509,-0.35632069,-0.93436372,0,0)" />
    <rect
       style="fill:#997f4c;fill-opacity:1;stroke:none;display:inline"
       id="rect3041-9-1-1-0-8-4"
       width="1.9999862"
       height="9.9999981"
       x="-86.020599"
       y="-42.738873"
       transform="matrix(-0.9884495,0.15155062,-0.15154852,-0.98844982,0,0)" />
    <rect
       style="fill:#997f4c;fill-opacity:1;stroke:none;display:inline"
       id="rect3041-8-1-1-24-0-8"
       width="1.9999868"
       height="9.9999952"
       x="-77.12188"
       y="-51.76321"
       transform="matrix(-0.96553998,0.26025479,-0.26025135,-0.9655409,0,0)" />
    <rect
       style="fill:#997f4c;fill-opacity:1;stroke:none;display:inline"
       id="rect3041-7-3-8-12-8"
       width="1.9999859"
       height="10"
       x="-93.45665"
       y="-34.168728"
       transform="matrix(-0.99847432,0.05521804,-0.05521726,-0.99847436,0,0)" />
    <rect
       style="fill:#000000;fill-opacity:1;stroke:none;display:inline"
       id="rect3041-9-1-1-1-6-8"
       width="1.9999995"
       height="9.9999304"
       x="-31.13102"
       y="-82.323738"
       transform="matrix(0.14779711,0.9890177,-0.9890174,0.14779915,0,0)" />
    <rect
       style="fill:#000000;fill-opacity:1;stroke:none;display:inline"
       id="rect3041-8-1-1-7-50-4"
       width="1.999999"
       height="9.9999342"
       x="-18.169397"
       y="-84.992432"
       transform="matrix(0.25684769,0.96645189,-0.96645099,0.25685109,0,0)" />
    <rect
       style="fill:#000000;fill-opacity:1;stroke:none;display:inline"
       id="rect3041-7-3-4-9-9"
       width="2"
       height="9.9999285"
       x="-42.376122"
       y="-78.975357"
       transform="matrix(0.05535372,0.99846681,-0.99846676,0.0553545,0,0)" />
    <rect
       style="fill:#000000;fill-opacity:1;stroke:none;display:inline"
       id="rect3041-8-1-1-7-0-0-6"
       width="1.9999982"
       height="9.999938"
       x="-5.8790512"
       y="-86.078293"
       transform="matrix(0.35257969,0.93578179,-0.93578014,0.35258406,0,0)" />
    <rect
       style="fill:#000000;fill-opacity:1;stroke:none;display:inline"
       id="rect3041-8-1-1-7-9-0-3"
       width="1.9999971"
       height="9.9999437"
       x="7.1401181"
       y="-85.908867"
       transform="matrix(0.45015535,0.89295026,-0.89294769,0.45016043,0,0)" />
    <rect
       style="fill:#000000;fill-opacity:1;stroke:none;display:inline"
       id="rect3041-8-1-1-7-4-6-7"
       width="1.9999957"
       height="9.9999504"
       x="20.327553"
       y="-84.268135"
       transform="matrix(0.54661756,0.83738238,-0.83737883,0.54662299,0,0)" />
    <rect
       style="fill:#997f4c;fill-opacity:1;stroke:none;display:inline"
       id="rect3041-9-1-1-1-6"
       width="1.9999996"
       height="9.9999304"
       x="-31.551224"
       y="-82.89209"
       transform="matrix(0.14779711,0.9890177,-0.9890174,0.14779915,0,0)" />
    <rect
       style="fill:#997f4c;fill-opacity:1;stroke:none;display:inline"
       id="rect3041-8-1-1-7-50"
       width="1.999999"
       height="9.9999342"
       x="-18.523802"
       y="-85.603973"
       transform="matrix(0.25684769,0.96645189,-0.96645099,0.25685109,0,0)" />
    <rect
       style="fill:#997f4c;fill-opacity:1;stroke:none;display:inline"
       id="rect3041-7-3-4-9"
       width="2"
       height="9.9999294"
       x="-42.847271"
       y="-79.502243"
       transform="matrix(0.05535372,0.99846681,-0.99846676,0.0553545,0,0)" />
    <rect
       style="fill:#997f4c;fill-opacity:1;stroke:none;display:inline"
       id="rect3041-8-1-1-7-0-0"
       width="1.9999982"
       height="9.999938"
       x="-6.1702666"
       y="-86.722328"
       transform="matrix(0.35257969,0.93578179,-0.93578014,0.35258406,0,0)" />
    <rect
       style="fill:#997f4c;fill-opacity:1;stroke:none;display:inline"
       id="rect3041-8-1-1-7-9-0"
       width="1.9999971"
       height="9.9999437"
       x="6.9190869"
       y="-86.580231"
       transform="matrix(0.45015535,0.89295026,-0.89294769,0.45016043,0,0)" />
    <rect
       style="fill:#997f4c;fill-opacity:1;stroke:none;display:inline"
       id="rect3041-8-1-1-7-4-6"
       width="1.9999957"
       height="9.9999504"
       x="20.182516"
       y="-84.959915"
       transform="matrix(0.54661756,0.83738238,-0.83737883,0.54662299,0,0)" />
  </g>
  <g
     inkscape:groupmode="layer"
     id="layer4"
     inkscape:label="Rails"
     style="display:inline"
     transform="translate(0,48)">
    <path
       id="path4043-4-0-1"
       style="fill:#7f7f7f;fill-opacity:1;stroke:none;display:inline"
       d="m 70.162284,30.885558 c 7.125538,-5.567641 16.094187,-8.885557 25.837719,-8.885557 l 0,-1 c -9.93208,0 -19.077722,3.367393 -26.35749,9.02278 l -0.157754,0.103928 C 63.427886,34.453885 56.011281,37 48,37 l 0,1 c 8.2382,0 15.864106,-2.621542 22.089005,-7.075914 z"
       inkscape:connector-curvature="0"
       sodipodi:nodetypes="ccccccccc" />
    <path
       id="path3992-2-3-4-7"
       style="fill:#7f7f7f;fill-opacity:1;stroke:none;display:inline"
       d="M 73.127933,34.914247 C 79.422816,29.957308 87.366076,27 96,27 l -0.003,-1 c -8.818033,0 -16.934062,3.003598 -23.381229,8.043526 L 72.34751,34.226851 C 65.479608,39.121175 57.075997,42 48,42 l 0,1 c 9.286683,0 17.885772,-2.943937 24.914931,-7.949475 z"
       inkscape:connector-curvature="0"
       sodipodi:nodetypes="ccccccccc" />
    <path
       id="path4043-4"
       style="fill:#7f7f7f;fill-opacity:1;stroke:none;display:inline"
       d="m 85.999998,0 -1,0 c 0,-8.623509 -2.950136,-16.557977 -7.983782,-22.981099 C 71.935719,-30.137 69,-38.725621 69,-48.000014 l 1,0 c 0,9.103462 2.895837,17.530465 7.898597,24.529109 C 83.005959,-16.90881 85.999998,-8.804053 85.999998,0 z"
       inkscape:connector-curvature="0"
       sodipodi:nodetypes="ccccccc" />
    <path
       id="path3992-2-3"
       style="fill:#7f7f7f;fill-opacity:1;stroke:none;display:inline"
       d="m 90.999998,0 -1,0 c 0,-9.265481 -3.000285,-17.830209 -8.102437,-24.803588 C 76.937684,-31.244472 74,-39.279168 74,-48.000002 l 0.999992,0 c 0,8.480788 2.853273,16.295153 7.69907,22.599109 C 87.93641,-18.231507 90.999998,-9.473523 90.999998,0 z"
       inkscape:connector-curvature="0"
       sodipodi:nodetypes="ccccccc" />
  </g>
  <g
     inkscape:groupmode="layer"
     id="layer6"
     inkscape:label="Spokes"
     sodipodi:insensitive="true"
     style="display:none"
     transform="translate(0,48)">
    <path
       style="fill:none;stroke:#000000;stroke-width:0.2;stroke-linecap:butt;stroke-linejoin:miter;stroke-miterlimit:4;stroke-opacity:1;stroke-dasharray:none;display:inline"
       d="M 0,0 47.934,2.512"
       id="path3158"
       inkscape:connector-curvature="0"
       sodipodi:nodetypes="cc" />
    <path
       style="fill:none;stroke:#000000;stroke-width:0.2;stroke-linecap:butt;stroke-linejoin:miter;stroke-miterlimit:4;stroke-opacity:1;stroke-dasharray:none;display:inline"
       d="M 0,0 47.409,7.509"
       id="path3158-8"
       inkscape:connector-curvature="0"
       sodipodi:nodetypes="cc" />
    <path
       style="fill:none;stroke:#000000;stroke-width:0.2;stroke-linecap:butt;stroke-linejoin:miter;stroke-miterlimit:4;stroke-opacity:1;stroke-dasharray:none;display:inline"
       d="M 0,0 33.941,33.941"
       id="path3158-82"
       inkscape:connector-curvature="0"
       sodipodi:nodetypes="cc" />
    <path
       style="fill:none;stroke:#000000;stroke-width:0.2;stroke-linecap:butt;stroke-linejoin:miter;stroke-miterlimit:4;stroke-opacity:1;stroke-dasharray:none;display:inline"
       d="M 0,0 26.143,40.256"
       id="path3158-4"
       inkscape:connector-curvature="0"
       sodipodi:nodetypes="cc" />
    <path
       style="fill:none;stroke:#000000;stroke-width:0.2;stroke-linecap:butt;stroke-linejoin:miter;stroke-miterlimit:4;stroke-opacity:1;stroke-dasharray:none;display:inline"
       d="M 0,0 21.792,42.768"
       id="path3158-5"
       inkscape:connector-curvature="0"
       sodipodi:nodetypes="cc" />
    <path
       style="fill:none;stroke:#000000;stroke-width:0.2;stroke-linecap:butt;stroke-linejoin:miter;stroke-miterlimit:4;stroke-opacity:1;stroke-dasharray:none;display:inline"
       d="M 0,0 37.303,30.207"
       id="path3158-51"
       inkscape:connector-curvature="0"
       sodipodi:nodetypes="cc" />
    <path
       style="fill:none;stroke:#000000;stroke-width:0.2;stroke-linecap:butt;stroke-linejoin:miter;stroke-miterlimit:4;stroke-opacity:1;stroke-dasharray:none;display:inline"
       d="M 0,0 42.768,21.792"
       id="path3158-7"
       inkscape:connector-curvature="0"
       sodipodi:nodetypes="cc" />
    <path
       style="fill:none;stroke:#000000;stroke-width:0.2;stroke-linecap:butt;stroke-linejoin:miter;stroke-miterlimit:4;stroke-opacity:1;stroke-dasharray:none;display:inline"
       d="M 0,0 44.812,17.202"
       id="path3158-1"
       inkscape:connector-curvature="0"
       sodipodi:nodetypes="cc" />
    <path
       style="fill:none;stroke:#000000;stroke-width:0.2;stroke-linecap:butt;stroke-linejoin:miter;stroke-miterlimit:4;stroke-opacity:1;stroke-dasharray:none;display:inline"
       d="M 0,0 46.364,12.423"
       id="path3158-15"
       inkscape:connector-curvature="0"
       sodipodi:nodetypes="cc" />
    <path
       style="fill:none;stroke:#000000;stroke-width:0.2;stroke-linecap:butt;stroke-linejoin:miter;stroke-miterlimit:4;stroke-opacity:1;stroke-dasharray:none;display:inline"
       d="M 0,0 30.207,37.303"
       id="path3158-2"
       inkscape:connector-curvature="0"
       sodipodi:nodetypes="cc" />
    <path
       style="fill:none;stroke:#000000;stroke-width:0.2;stroke-linecap:butt;stroke-linejoin:miter;stroke-miterlimit:4;stroke-opacity:1;stroke-dasharray:none;display:inline"
       d="M 0,0 12.423,46.364"
       id="path3158-76"
       inkscape:connector-curvature="0"
       sodipodi:nodetypes="cc" />
    <path
       style="fill:none;stroke:#000000;stroke-width:0.2;stroke-linecap:butt;stroke-linejoin:miter;stroke-miterlimit:4;stroke-opacity:1;stroke-dasharray:none;display:inline"
       d="M 0,0 40.256,26.143"
       id="path3158-14"
       inkscape:connector-curvature="0"
       sodipodi:nodetypes="cc" />
    <path
       style="fill:none;stroke:#000000;stroke-width:0.2;stroke-linecap:butt;stroke-linejoin:miter;stroke-miterlimit:4;stroke-opacity:1;stroke-dasharray:none;display:inline"
       d="M 0,0 2.512,47.934"
       id="path3158-23"
       inkscape:connector-curvature="0"
       sodipodi:nodetypes="cc" />
    <path
       style="fill:none;stroke:#000000;stroke-width:0.2;stroke-linecap:butt;stroke-linejoin:miter;stroke-miterlimit:4;stroke-opacity:1;stroke-dasharray:none;display:inline"
       d="M 17.202,44.812 0,0"
       id="path3158-23-2"
       inkscape:connector-curvature="0"
       sodipodi:nodetypes="cc" />
    <path
       style="fill:none;stroke:#000000;stroke-width:0.2;stroke-linecap:butt;stroke-linejoin:miter;stroke-miterlimit:4;stroke-opacity:1;stroke-dasharray:none;display:inline"
       d="M 0,0 7.509,47.409"
       id="path3158-23-21"
       inkscape:connector-curvature="0"
       sodipodi:nodetypes="cc" />
    <path
       inkscape:connector-curvature="0"
       style="fill:none;stroke:#000000;stroke-width:0.2;stroke-miterlimit:4;stroke-opacity:1;stroke-dasharray:none;display:inline"
       d="M 0,40 C 22.09138,40 40,22.09138 40,2.0025031e-7"
       id="path3992-2-8"
       sodipodi:nodetypes="cc" />
  </g>
</svg>
